<svg xmlns="http://www.w3.org/2000/svg" xmlns:xlink="http://www.w3.org/1999/xlink" width="2650" height="2311" viewBox="0 0 2650 2311">
  <defs>
    <clipPath id="clip-Web_1920_1">
      <rect width="2650" height="2311"/>
    </clipPath>
  </defs>
  <g id="Web_1920_1" data-name="Web 1920 – 1" clip-path="url(#clip-Web_1920_1)">
    <rect width="2650" height="2311" fill="#fff"/>
    <g id="_10_MAN_AND_GIRL" data-name="10_MAN AND GIRL" transform="translate(-103.933 -43.113)">
      <g id="SIGN" transform="translate(0 1)">
        <path id="Path_1" data-name="Path 1" d="M1087.393,327.926a3.5,3.5,0,0,1-1.946-6.411c2.62-1.748,264.519-173.03,485.766-19.739a3.5,3.5,0,1,1-3.987,5.754c-217.3-150.555-475.314,18.087-477.894,19.808A3.484,3.484,0,0,1,1087.393,327.926Z" fill="#ffd274"/>
        <g id="Group_1" data-name="Group 1" transform="translate(6.696 124.299)">
          <path id="Path_2" data-name="Path 2" d="M1114.693,311.93a3.5,3.5,0,0,1-1.667-6.58c71.413-38.587,256.015-118.051,427.385-22.765a3.5,3.5,0,0,1-3.4,6.118c-168.343-93.6-350.257-15.234-420.655,22.805A3.485,3.485,0,0,1,1114.693,311.93Z" fill="#ffd274"/>
        </g>
        <g id="Group_2" data-name="Group 2" transform="matrix(-0.974, -0.225, 0.225, -0.974, 2505.63, 138.586)">
          <path id="Path_3" data-name="Path 3" d="M881.851-364.6a4.916,4.916,0,0,1-4.918,4.917H867.1a4.921,4.921,0,0,1-4.918-4.917V-645.583A4.921,4.921,0,0,1,867.1-650.5h9.836a4.916,4.916,0,0,1,4.918,4.917Z" fill="#a52929" fill-rule="evenodd"/>
        </g>
        <g id="Group_3" data-name="Group 3" transform="matrix(0.968, -0.25, 0.25, 0.968, 150.538, 181.221)">
          <path id="Path_4" data-name="Path 4" d="M881.847,364.6a4.916,4.916,0,0,0-4.918-4.917h-9.836a4.921,4.921,0,0,0-4.918,4.917V645.583a4.921,4.921,0,0,0,4.918,4.917h9.836a4.916,4.916,0,0,0,4.918-4.917Z" fill="#a52929" fill-rule="evenodd"/>
        </g>
      </g>
      <g id="BIRD-2">
        <path id="Path_5" data-name="Path 5" d="M806.579,361.364S817,341.015,832.66,350.447l9.687-6.882a.716.716,0,0,1,1.1.8l-3.279,10.458s14.02,35.384-7.468,61.216c-6.205,7.46-43.563,45.116-78.967,6.336a9.125,9.125,0,0,1-2.285-7.466c.752-5.247,2.908-14.012,8.924-19.127l11.644,6.751c-4.441-4.885-8.652-9.949-11.644-15.953,0,0-8.479-34.352,15.68-58.623a1.963,1.963,0,0,1,3.125.485C782.964,335.774,795.254,357.965,806.579,361.364Z" fill="#69bac9" fill-rule="evenodd"/>
        <path id="Path_6" data-name="Path 6" d="M759.554,362.5c2.846,5.974,9.493,18.32,18.74,25.436a2,2,0,1,1-2.44,3.17c-7.316-5.631-13.178-14.509-16.9-21.153C759.035,367.3,759.265,364.893,759.554,362.5Zm4.119-15.984c1.378,3.642,8.59,21.654,19.849,31.336a2,2,0,1,1-2.608,3.033c-9.324-8.018-16.05-21.434-19.216-28.675A55.622,55.622,0,0,1,763.673,346.513Zm7.7-13.18a1.991,1.991,0,0,1,.112.273s6.889,21.157,19.613,32.433a2,2,0,0,1-2.653,2.994c-10.7-9.482-17.531-25.559-19.864-31.7C769.573,335.789,770.508,334.47,771.371,333.333Z" fill="#fff" fill-rule="evenodd"/>
        <path id="Path_7" data-name="Path 7" d="M806.579,361.364l2.178-3.466a25.409,25.409,0,0,0,7.777,3.072,2,2,0,1,1-.571,3.959C812.066,364.367,806.579,361.364,806.579,361.364Z" fill-rule="evenodd"/>
        <path id="Path_8" data-name="Path 8" d="M761.548,396.464s10.356,15.425,26.384,18.682c1.082.219,2.188.122,2.7-.858a1.894,1.894,0,0,0-.858-2.7c-12.656-3.845-17.886-9.2-17.886-9.2Z" fill-rule="evenodd"/>
      </g>
      <g id="BIRD-1" transform="translate(2672.39 179.726) rotate(180)">
        <path id="Path_9" data-name="Path 9" d="M806.579-361.364S817-341.015,832.66-350.447l9.687,6.882a.715.715,0,0,0,.835-.005.715.715,0,0,0,.262-.793l-3.279-10.458s14.02-35.384-7.468-61.216c-6.205-7.46-43.563-45.116-78.967-6.336a9.125,9.125,0,0,0-2.285,7.466c.752,5.247,2.908,14.012,8.924,19.127l11.644-6.751c-4.441,4.885-8.652,9.949-11.644,15.953,0,0-8.479,34.352,15.68,58.623a1.963,1.963,0,0,0,1.685.548,1.962,1.962,0,0,0,1.44-1.033C782.964-335.774,795.254-357.965,806.579-361.364Z" fill="#69bac9" fill-rule="evenodd"/>
        <path id="Path_10" data-name="Path 10" d="M759.554-362.5c2.846-5.974,9.493-18.32,18.74-25.436a2,2,0,0,0,.365-2.8,2,2,0,0,0-2.8-.365c-7.316,5.631-13.178,14.509-16.9,21.153C759.035-367.3,759.265-364.893,759.554-362.5Zm4.119,15.984c1.378-3.642,8.59-21.654,19.849-31.336a2,2,0,0,0,.213-2.82,2,2,0,0,0-2.821-.213c-9.324,8.018-16.05,21.434-19.216,28.675A55.622,55.622,0,0,0,763.673-346.513Zm7.7,13.18a1.991,1.991,0,0,0,.112-.273s6.889-21.157,19.613-32.433a2,2,0,0,0,.17-2.823,2,2,0,0,0-2.823-.171c-10.7,9.482-17.531,25.559-19.864,31.7C769.573-335.789,770.508-334.47,771.371-333.333Z" fill="#fff" fill-rule="evenodd"/>
        <path id="Path_11" data-name="Path 11" d="M806.579-361.364l2.178,3.466a25.409,25.409,0,0,1,7.777-3.072,2,2,0,0,0,1.694-2.265,2,2,0,0,0-2.265-1.694C812.066-364.367,806.579-361.364,806.579-361.364Z" fill-rule="evenodd"/>
        <path id="Path_12" data-name="Path 12" d="M761.548-396.464s10.356-15.425,26.384-18.682c1.082-.219,2.188-.122,2.7.858a1.894,1.894,0,0,1-.858,2.7c-12.656,3.845-17.886,9.2-17.886,9.2Z" fill-rule="evenodd"/>
      </g>
      <g id="MAN">
        <g id="Group_5" data-name="Group 5">
          <g id="Group_4" data-name="Group 4" transform="translate(23.985 -4.294)">
            <path id="Path_13" data-name="Path 13" d="M620.445,1354.94l.575-76.29h6l-.575,77.79a3,3,0,0,1-1.285,2.46s-18.64,12.84-23.237,30.76c40.843-19.5,68.183-26.68,105.778-28.14,25.241-.99,50.286,5.28,77.1,15.7l-2.442-98.39,6-.18,2.575,102.94a3,3,0,0,1-4.116,2.87c-27.573-11.06-53.113-17.96-78.881-16.95-38.336,1.5-65.76,9.11-108.606,30.07a3,3,0,0,1-4.308-2.94C596.61,1374.67,615.328,1358.9,620.445,1354.94Z" fill="#ff7867" fill-rule="evenodd"/>
          </g>
          <path id="Path_14" data-name="Path 14" d="M1399.77,1749.33c-3.02-6.63-12.76-20.77-42.08-26.3a2.989,2.989,0,0,1-2.36-2.28l-23.67-103.62,5.79-1.73,23.29,102.12c42.04,8.66,46.19,34.28,46.19,34.28a3.017,3.017,0,0,1-2.96,3.53H1197.66a3.016,3.016,0,0,1-2.91-2.25l-23.23-88.11,5.49-1.65,22.97,86.01Z" fill="#ff7867" fill-rule="evenodd"/>
        </g>
        <g id="Group_6" data-name="Group 6">
          <path id="Path_15" data-name="Path 15" d="M644.916,1274.36H812.338V973.547L1038.75,1123.37l132.77,541.6,165.93-49.57-114.33-622L980.871,834.986,780.34,731.658a96.7,96.7,0,0,0-140.98,87.135C641.587,1001.42,644.916,1274.36,644.916,1274.36Z" fill="#668ddb" fill-rule="evenodd"/>
          <path id="Path_16" data-name="Path 16" d="M1080.93,900.419l5.03,3.284-25.42,40.525,13.52,10.783,27-41.43,5.02,3.284-28.8,44.188a3.006,3.006,0,0,1-4.39.707l-18.19-14.512a3,3,0,0,1-.67-3.939l26.87-42.842Z" fill="#3768be" fill-rule="evenodd"/>
          <path id="Path_17" data-name="Path 17" d="M687.778,738.07a3,3,0,0,0-3.162.261c-34.578,25.726-37.175,55.134-37.175,55.134a3,3,0,0,0,4.38,2.939,6.054,6.054,0,0,1,2.975-.3,33.49,33.49,0,0,1,5.879,1c10.687,2.641,24.446,9.175,24.446,9.175a3,3,0,0,0,4.01-1.456c9.412-20.437,29.849-35.925,29.849-35.925a3,3,0,0,0,.528-4.264A110.144,110.144,0,0,0,687.778,738.07Zm-1.117,6.237c-23.423,18.028-30.467,37.588-32.483,45.774a36.3,36.3,0,0,1,7.936,1.2c8.22,2.031,18.181,6.254,22.878,8.348,8.227-16.025,22.3-28.812,27.93-33.538A105.964,105.964,0,0,0,686.661,744.307Z" fill="#3768be" fill-rule="evenodd"/>
          <path id="Path_18" data-name="Path 18" d="M644.586,1247.31l-.073-6H812.338v6H769.527v27.05h-6v-27.05h-7.468v27.05h-6v-27.05H680.786v27.05h-6v-27.05Z" fill="#3768be" fill-rule="evenodd"/>
          <path id="Path_19" data-name="Path 19" d="M1332.49,1588.41l1.09,5.93-55.07,15.61,8.31,20.29-5.79,1.69-8.33-20.33-4.59,1.3,7.15,20.71-5.76,1.69-7.17-20.76-57.39,16.27,6.85,21.34-5.76,1.68-6.87-21.38-33.3,9.44-1.43-5.83Z" fill="#3768be" fill-rule="evenodd"/>
          <path id="Path_20" data-name="Path 20" d="M1217.11,1338.48a3.006,3.006,0,0,0-2.38,3.52l9.59,49.16a2.95,2.95,0,0,0,1.28,1.92,3,3,0,0,0,2.27.45l47.2-9.75a2.958,2.958,0,0,0,1.9-1.29,3.006,3.006,0,0,0,.43-2.26l-10.22-48.38a3,3,0,0,0-3.5-2.32Zm4.09,5.33,8.43,43.23,41.27-8.52-8.98-42.54Z" fill="#3768be" fill-rule="evenodd"/>
        </g>
        <g id="Group_7" data-name="Group 7">
          <path id="Path_21" data-name="Path 21" d="M1197.95,962.951c5.84,33.343,32.9,136.589,118.17,123.469,29.21-4.5,80.85-30.04,77.23-134.716-3.86-112.1-6.08-190.357-17.77-276.628-1.8-13.355-6.5-25.9-12.17-33.336-5.32-6.97-11.7-5.591-9.23,4.341-11.65-13.908-24.49-13.246-20.6-2.85,0,0-15.96-6.532-10.11,9.065,0,0-13.64-3.644-8.73,8.79,4.32,10.927,1.67,49.846-.4,51.941-2.8,2.819-4.15-10.77-14.48-18.868-3.24-2.533-8.86-4.186-8.73,9.5,0,0-8.86,144.41-26.89,237.549Z" fill="#e0755e" fill-rule="evenodd"/>
          <path id="Path_22" data-name="Path 22" d="M1331.92,734a51.824,51.824,0,0,0-5.37-8.522,51.145,51.145,0,0,0-9.86-9.6c-.27-.211-3.84-2.681-3.84-2.681,1.24.708,2.16-1.173,2.29-2.623.44.3,3.55,2.222,3.78,2.4a55.08,55.08,0,0,1,10.54,10.294,57.806,57.806,0,0,1,4.87,7.475,28.683,28.683,0,0,1,18.25-9.958,1.83,1.83,0,0,1,.38,3.64,25.041,25.041,0,0,0-16.88,9.972,24.731,24.731,0,0,1,1.73,6.1,12.612,12.612,0,0,1-1.22,6.492,3.837,3.837,0,0,1-2.29,1.814,3.794,3.794,0,0,1-3.22-.759,5.848,5.848,0,0,1-2.29-5.309,18.239,18.239,0,0,1,2.14-7.018Q1331.395,734.844,1331.92,734Zm1.73,4.461a13.037,13.037,0,0,0-1.21,4.419,2.35,2.35,0,0,0,.74,2.168c.06.041.14.082.2.116a4.318,4.318,0,0,0,.33-.614,8.851,8.851,0,0,0,.47-3.573A17.677,17.677,0,0,0,1333.65,738.464Z" fill="#a52929" fill-rule="evenodd"/>
          <path id="Path_23" data-name="Path 23" d="M1323.47,652.3l-1.21-4.576s10.6,15.625,13.8,47.868a2.507,2.507,0,0,1-2.21,2.758,2.478,2.478,0,0,1-2.76-2.211c-2.18-26.839-11.02-44.936-11.56-44.322Z" fill="rgba(165,41,41,0.86)" fill-rule="evenodd"/>
          <path id="Path_24" data-name="Path 24" d="M1333.73,636.914c-1.17,1.592-.92,3.837-.15,6.317l-2.19-.71s13.2,25.927,13.77,51.748a2.5,2.5,0,0,0,5-.11C1349.48,663.371,1333.73,636.914,1333.73,636.914Z" fill="rgba(165,41,41,0.86)" fill-rule="evenodd"/>
          <path id="Path_25" data-name="Path 25" d="M1353.76,640.61a18.837,18.837,0,0,0,.42,5.471,19.327,19.327,0,0,0-5.76-5.708s11.33,35.347,12.34,53.922a2.5,2.5,0,1,0,4.99-.272C1364.77,676.063,1353.76,640.61,1353.76,640.61Z" fill="rgba(165,41,41,0.86)" fill-rule="evenodd"/>
          <path id="Path_26" data-name="Path 26" d="M1251.97,945.231s.57,17.979,1.26,39.6a3.891,3.891,0,0,0,7.77.164c1.75-23.6,3.24-43.786,3.24-43.786Z" fill="#a52929" fill-rule="evenodd"/>
        </g>
        <g id="Group_9" data-name="Group 9">
          <path id="Path_27" data-name="Path 27" d="M1114.62,703.932l9.39-14.22s-.45-.592-1.19-1.578a37.1,37.1,0,0,1-.89-43.4c12.85-18.626,33.66-40.182,58.08-32.836,0,0,38.75,15.051,26.2,52.337l-1.59,6.887s14.3,6.96,1.59,18.587c0,0-10.03,9.007-18.12,3.656l-4.53,46.242S1131.85,750.6,1114.62,703.932Z" fill="#e0755e" fill-rule="evenodd"/>
          <path id="Path_28" data-name="Path 28" d="M1124.2,689.586l-2.96,4.641a76.5,76.5,0,0,0,6.87,5.119c7.59,4.646,18.85,8.623,35.03,8.147a3,3,0,1,0-.18-6c-14.64.432-24.85-3.064-31.72-7.268C1128.66,692.652,1124.2,689.586,1124.2,689.586Z" fill="#a52929" fill-rule="evenodd"/>
          <path id="Path_29" data-name="Path 29" d="M1204.62,671.262l1.45-6.075a22.1,22.1,0,0,0-3.98-.723c-3.58-.1-8.44,1.165-15.69,6.1a3,3,0,0,0,3.38,4.961c5.66-3.855,9.35-5.134,12.15-5.059A6.375,6.375,0,0,1,1204.62,671.262Z" fill="#a52929" fill-rule="evenodd"/>
          <path id="Path_30" data-name="Path 30" d="M1181.79,696.34l5.57,4.258,1.04-7.172-2.57-1.518a3,3,0,1,0-4.04,4.432Z" fill="#a52929" fill-rule="evenodd"/>
          <g id="Group_8" data-name="Group 8" transform="translate(141.425 146.712)">
            <path id="Path_31" data-name="Path 31" d="M1007.882,518.395c-3.046,1.962-5.2,6.046-2.625,9.219a8.257,8.257,0,0,0,6.864,2.75,26.3,26.3,0,0,0,9.612-2.542,2,2,0,0,0-1.677-3.63,21.862,21.862,0,0,1-8.014,2.175,4.363,4.363,0,0,1-3.678-1.273,1.253,1.253,0,0,1-.105-1.386,4.8,4.8,0,0,1,1.782-1.954,2,2,0,0,0-2.159-3.359Z" fill="#a52929" fill-rule="evenodd"/>
            <path id="Path_32" data-name="Path 32" d="M1021.733,527.822c5.8-2.681,5.109-8.167,2.783-10.307a9.592,9.592,0,0,0-6.847-2.016,21.375,21.375,0,0,0-9.787,2.9,2,2,0,0,0,2.159,3.359,17.02,17.02,0,0,1,7.768-2.259,5.616,5.616,0,0,1,4,.964c.9.825.483,2.7-1.756,3.733a2,2,0,1,0,1.677,3.63Z" fill="#a52929" fill-rule="evenodd"/>
          </g>
        </g>
        <g id="Group_10" data-name="Group 10">
          <path id="Path_33" data-name="Path 33" d="M1020.15,686.647s33.25-5.466,94.16,20.55c.5.212,1.95.906,1.95.906l-1.56-4.208,1-1.574s-.89-.31-1.39-.523c-63.25-27.037-95.45-21.011-95.45-21.011a3,3,0,1,0,1.29,5.86Z" fill-rule="evenodd"/>
          <path id="Path_34" data-name="Path 34" d="M1184.12,733.536l-.58,6.028,1.07.443c14.53,6.132,55.67,27.667,92.76,86.495.64,1.024,1.93,3.107,1.93,3.107l1.05-9.777s-.59-.717-1.05-1.417c-38.23-58.246-79.91-78.929-93.71-84.5C1185.24,733.777,1184.12,733.536,1184.12,733.536Z" fill-rule="evenodd"/>
          <path id="Path_35" data-name="Path 35" d="M987,834.918l18.64-10.589a3,3,0,0,0,.48-4.215c-1.03-1.3-2.72-2.793-4.02-1.762l-19.724,11.3Z" fill-rule="evenodd"/>
          <path id="Path_36" data-name="Path 36" d="M992.658,770.106,1008.55,853.1l7.06,4.533-17.071-88.714a3,3,0,1,0-5.881,1.188Z" fill-rule="evenodd"/>
          <path id="Path_37" data-name="Path 37" d="M1177.06,888.406l13.17,83.483,10.9,7.117-18.17-91.684a3,3,0,1,0-5.9,1.084Z" fill-rule="evenodd"/>
          <path id="Path_38" data-name="Path 38" d="M1174.92,961.863l2.57-74.809c10.25,27.825,14.93,59.484,20.17,89.682C1189.97,971.639,1182.51,966.873,1174.92,961.863Z" fill-rule="evenodd"/>
        </g>
        <g id="Group_11" data-name="Group 11">
          <path id="Path_39" data-name="Path 39" d="M1111.16,452.887c-131.886,86.3-191.605,130.441-297.5,249.339a99.369,99.369,0,0,0-15.347,109.385,161.188,161.188,0,0,0,14.025,23.375h0a98.819,98.819,0,0,0,131.948,26.5l43.136-26.5-56.277-63.437L1141.97,561.978s16.68-10.375,18.02,3.895c0,0,13.82-.492,11.53-21.825,0,0,14.16-10.042,5.91-25.028,0,0,8.43-17.831-5.91-30.08,0,0,.91-17.047-16.95-22.247,0,0-19.74-6.593-39.26,0Z" fill="#e0755e" fill-rule="evenodd"/>
          <path id="Path_40" data-name="Path 40" d="M930.263,770.524l3.979,4.491-33.964,30.778a3,3,0,1,1-4.029-4.446Z" fill="#a52929" fill-rule="evenodd"/>
          <path id="Path_41" data-name="Path 41" d="M1171.52,544.795c-3.66-6.437-10.68-8.7-17.81-9.253-12.45-.975-25.49,3.32-25.49,3.32a3,3,0,0,1-1.88-5.7s14.25-4.666,27.84-3.6c8.42.659,16.51,3.514,21.39,10.434-1.56,1.757-4.05,4.054-4.05,4.054Zm5.49-25.448c-23.49-17.308-54.61-4.076-54.61-4.076a3,3,0,1,1-2.33-5.529s33.24-13.876,59.1,3.786C1178.8,515.231,1178.06,517.984,1177.01,519.347Zm-5.49-30.188c-29.73-12.295-58.83,3.267-58.83,3.267a3,3,0,0,1-2.83-5.293s29.57-15.758,60.75-4.74C1170.95,483.843,1171.74,487.42,1171.52,489.159Zm-57.85-27.881c.45,1.506,1.39,4.73,1.69,5.782l-13.57,5.332a3,3,0,0,1-2.2-5.584Z" fill="#a52929" fill-rule="evenodd"/>
        </g>
      </g>
      <g id="GIRL">
        <g id="Group_12" data-name="Group 12">
          <path id="Path_42" data-name="Path 42" d="M1503.62,560.006a14.7,14.7,0,0,1-4.4,9.029c-1.9,1.859-4.19,3.035-6.22,1.273-1.39-1.2-3.46-9.266-4.21-12.482a19.923,19.923,0,0,1,3.19-16.028s-11.08-7.948-.77-19.995c0,0-6.52-13.357,4.83-21.107,0,0-7.73-12.892,11.72-25.47,5.75-3.718,22.92-18.945,54.67,2.128l87.32,58.214-56.4,88.376s-74.96-72.208-81.32-73.372C1512.03,550.572,1504.92,546.678,1503.62,560.006Z" fill="#a52929" fill-rule="evenodd"/>
          <path id="Path_43" data-name="Path 43" d="M1488.51,537.4c4.43-4.643,12.24-11.556,22.5-11.688,6.66-.086,13.7,2.031,21.39,10.259,1.32,1.411,1.73,3,.32,4.321a3.506,3.506,0,0,1-4.95-.167c-5.91-6.324-11.56-8.648-16.68-8.583-8.52.11-15.73,6.645-19.06,10.384C1489.24,540.007,1489.06,538.962,1488.51,537.4Zm1.14-21.806c.12,2.942.44,3.545,1.67,6.056,0,0,6.52-7.078,12.52-9.475,7.08-2.826,16.72-3.2,29.23,2.855a3.506,3.506,0,0,0,4.68-1.625c.84-1.739-.13-2.918-1.87-3.759-14.92-7.224-25.7-5.583-34.14-2.214C1496.76,509.417,1489.65,515.589,1489.65,515.589Zm5.03-20.085c.13,3.011.4,2.176,1.24,5.126,0,0,.74-.438,1-.646,7.54-6,23.76-15.152,43.49-5.4,1.73.856,3.34.542,4.2-1.189s-.25-2.643-1.98-3.5c-20.77-10.269-37.09-1.94-46.82,4.808C1495.51,494.912,1494.68,495.5,1494.68,495.5Z" fill-rule="evenodd"/>
        </g>
        <g id="Group_13" data-name="Group 13">
          <path id="Path_44" data-name="Path 44" d="M1286.31,811.256s-2.09-128.281,18.64-140.654c0,0,7.17-1.511,8.79,11.8,0,0,25.65-40.854,41.93-47.066,2.55-.974,10.19-2.227,8.29,6.814,0,0,9.77-3.324,11,9.083,0,0,11.14.1,9.43,11.955,0,0,10.8,3.481,4.78,15.677,0,0-25.29,42.862-8.02,136.552Z" fill="#a52929" fill-rule="evenodd"/>
          <path id="Path_45" data-name="Path 45" d="M1384.43,663.127a6.931,6.931,0,0,1,4.19,3.039c-4,3.221-15.73,14.143-32.09,41.5a2.5,2.5,0,1,1-4.29-2.566C1367.45,679.673,1379.14,667.705,1384.43,663.127ZM1312.2,675.9a34.733,34.733,0,0,1,1.57,6.511,66.316,66.316,0,0,0-6.91,16.18,2.5,2.5,0,0,1-4.85-1.247s3.01-11.641,9.5-20.54A9.589,9.589,0,0,1,1312.2,675.9Zm62.49-24.726a9.768,9.768,0,0,1,5.5,1.582c-5.19,5.091-25.31,25.371-37.26,45.288a2.5,2.5,0,0,1-4.29-2.571C1349.63,677.144,1367.38,658.511,1374.69,651.17ZM1364,641.917c.88-.232,5.06-.962,6.76.989-7.21,5.417-25.43,21.559-39.5,48.114a2.5,2.5,0,0,1-4.42-2.341A160.413,160.413,0,0,1,1364,641.917Z" fill-rule="evenodd"/>
        </g>
        <g id="Group_14" data-name="Group 14">
          <path id="Path_46" data-name="Path 46" d="M1607.36,664.647S1567.72,802.126,1393.97,839.5c0,0,12.89-53.428,86.14-95.132l-1.66-44.547s-23.14,7.219-23.46-14.153c-.1-6,6.08-8.521,10.56-10.551,0,0,10.32,20.48,29.33,12.1,7.57-3.339,21.63-22.551,24.32-54.006,0,0,11.31,4.358,12.55-4.726,0,0,7.22,17.973,12.68,31.589a22.748,22.748,0,0,1-6.13,25.614l4.57,14.727S1578.12,659.2,1607.36,664.647Z" fill="#a52929" fill-rule="evenodd"/>
          <path id="Path_47" data-name="Path 47" d="M1521.92,668.951a12.437,12.437,0,0,0-4.6,3.376,5.351,5.351,0,0,0-.65,6.2,6.641,6.641,0,0,0,4.96,3.306,11.745,11.745,0,0,0,7.82-1.65,2,2,0,0,0-2.22-3.325,7.566,7.566,0,0,1-4.1,1.1,3.163,3.163,0,0,1-2.94-1.345,1.581,1.581,0,0,1,.29-1.832,8.161,8.161,0,0,1,3.07-2.189,2,2,0,1,0-1.63-3.65Z" fill-rule="evenodd"/>
          <path id="Path_48" data-name="Path 48" d="M1529.45,680.188a14.163,14.163,0,0,0,3.38-2.984,5.392,5.392,0,0,0,.7-6.029,6.083,6.083,0,0,0-4.02-2.983,11.976,11.976,0,0,0-7.59.759,2,2,0,1,0,1.63,3.65,7.819,7.819,0,0,1,4.94-.54,2.163,2.163,0,0,1,1.48.933,1.607,1.607,0,0,1-.33,1.8,9.862,9.862,0,0,1-2.41,2.072,2,2,0,0,0,2.22,3.325Z" fill-rule="evenodd"/>
          <path id="Path_49" data-name="Path 49" d="M1538.35,685.844l1.31,4.243c-5.96,5.541-16.49,13.105-29.95,13.669a2,2,0,0,1-.17-4C1523.01,699.2,1533.26,690.947,1538.35,685.844Z" fill-rule="evenodd"/>
          <path id="Path_50" data-name="Path 50" d="M1545.3,708.492l-2.43-8.074s1.42-1.416,3.08-3.165l3.16,10.038a2,2,0,1,1-3.81,1.2Z" fill-rule="evenodd"/>
          <path id="Path_51" data-name="Path 51" d="M1459.04,654.295a56.067,56.067,0,0,1-27.48,3.347c-19.71-2.386-37.3-14.5-50.35-28.936-9.46-10.461-16.73-22.877-29.04-30.37-16.84-10.246-35.02-2.963-52.97-.2-30.74,4.733-65.78-1.774-82.33-31.1a57.165,57.165,0,0,1-7.26-25.679c-.47-10.749,2.36-21.616,7.06-31.228,14.68-30.042,50.65-50.327,83.64-39.346,15.72,5.231,28.73,16.745,38.76,29.637,8.96,11.519,14.75,24.768,21.43,37.635,3.18,6.119,6.72,14.453,13.16,17.838,7.38,3.877,14.47-2.69,19.49-7.445,9.27-8.777,19.83-18.775,33.15-20.214,15.05-1.626,25.35,10.319,32.21,22.115,12.42,21.363,17.15,43.444,18.53,67.246a59.211,59.211,0,0,1,12.02-6.087s33.9-9.15,42.69,16.978c0,0-.63,10.674-12.55,4.726,0,0,1.62,48.086-29.29,55.613-5.19,1.262-15.56,2.216-25.93-13A63.482,63.482,0,0,1,1459.04,654.295Z" fill-rule="evenodd"/>
        </g>
        <g id="Group_16" data-name="Group 16">
          <g id="Group_15" data-name="Group 15">
            <path id="Path_52" data-name="Path 52" d="M2021.64,1383.85a3,3,0,0,1-1.956-.726c-31.374-26.991-192.949-19.981-194.577-19.907a3,3,0,0,1-3.136-3v-67.35a3,3,0,0,1,6,0v64.223c22.769-.884,154.777-4.906,191.93,18.765a11.634,11.634,0,0,0-.477-3.493c-1.494-5.212-7.144-13.406-25.581-22.844a3,3,0,0,1-1.633-2.67V1244.31a3,3,0,0,1,6,0v100.719c15.57,8.235,24.679,17,27.084,26.053,1.772,6.676-.839,10.944-1.142,11.408a3,3,0,0,1-2.512,1.359Z" fill="#668ddb"/>
            <path id="Path_53" data-name="Path 53" d="M1316.88,1738.53l16.7-71.28a52.535,52.535,0,0,1,5.83,1.39l-17.15,73.18a2.978,2.978,0,0,1-2.46,2.27,105.539,105.539,0,0,0-29.42,9.97c-8.1,4.27-16.11,10.2-21.17,18.43h206.56l13.47-64.81,5.69,1.18-13.79,67.24a3.007,3.007,0,0,1-2.94,2.39H1264.24a3.008,3.008,0,0,1-2.74-4.22c5.23-11.73,15.53-19.96,26.08-25.52A113.314,113.314,0,0,1,1316.88,1738.53Z" fill="#668ddb" fill-rule="evenodd"/>
          </g>
          <path id="Path_54" data-name="Path 54" d="M1992.21,1242.05v-363.6a120.43,120.43,0,0,0-168.7-110.329c-75.24,32.919-163.27,74.077-163.27,74.077a3,3,0,1,1-2.4-5.5s88.03-41.158,163.26-74.077a126.429,126.429,0,0,1,177.11,115.826V1244.31c0,.63.04,2.32.04,2.32s-1.54.37-2.22.56l-170.24,48.57c-.89.25-3.73.97-3.73.97s-.05-2.82-.09-3.74l-12.16-303.009-148.47,79.139-165.62,637.2c-.2.77-.79,2.54-.79,2.54a28.348,28.348,0,0,1-2.87-.39l-155.37-40.6-3.11-.62c-4.4-4.04,63.88-362.78,87.69-549.77,25.77-202.422,107.73-213.609,108.57-212.566a3,3,0,1,1,.58,5.971s-24.24,9.6-44.01,34.278c-20.6,25.717-44.24,75.487-56.91,171.527-24.93,189.09-66.27,379.35-88.72,546.04l149.89,39.17,165.19-635.56a3.015,3.015,0,0,1,1.5-1.9l153.84-82a3,3,0,0,1,4.41,2.527l12.2,303.975Z" fill="#f76" fill-rule="evenodd"/>
          <path id="Path_55" data-name="Path 55" d="M1480.37,1697.63c-.77-.98-1.53-2.02-2.26-3.12-8.09-12.19-13.55-31.8-13.55-53.96s5.46-41.78,13.55-53.97c6.54-9.84,14.96-15.1,23.68-15.1s17.15,5.26,23.69,15.1c.1.16.2.31.3.47l-5.48,21.18a57.647,57.647,0,0,0-6.48-13.9c-3.48-5.23-7.39-8.85-12.03-8.85s-8.54,3.62-12.02,8.85c-6.92,10.42-11.21,27.27-11.21,46.22s4.29,35.8,11.21,46.21c2.47,3.71,5.15,6.62,8.16,7.99l-1.69,6.56Zm-127.33-116.39c18.55-9.09,37.07-12.82,50.8-11.39,11.76,1.22,20.33,6.23,24.38,13.96s3.3,17.63-2.38,27.99c-7.03,12.82-21.87,26.77-41.5,37.06-15.69,8.23-31.55,12.61-44.72,13.26l2.35-14.17c10.75-1.02,23.35-4.92,35.87-11.49,16.78-8.8,29.71-20.43,35.72-31.39,3.02-5.51,4.42-10.66,2.26-14.76s-7.18-5.89-13.42-6.53c-12.44-1.3-29.36,2.73-46.14,11.52-2.1,1.11-4.15,2.26-6.12,3.44Zm23.67-142.63a44.376,44.376,0,0,1,7.33-.44c14.62.27,33.86,6.93,52.09,19.54s31.26,28.25,36.68,41.84c4.34,10.88,3.93,20.74-.93,27.9l-.11.17c-4.96,7.17-14.08,11.1-25.9,10.89-14.62-.28-33.86-6.94-52.09-19.55a120.209,120.209,0,0,1-26.35-24.44l3.45-20.77c5.05,11.16,16.08,23.48,30.86,33.7,15.59,10.77,31.89,16.83,44.39,17.06,6.28.11,11.49-1.04,14.12-4.85s1.88-9.09-.44-14.93c-4.64-11.61-16.06-24.73-31.64-35.5s-31.89-16.83-44.39-17.06a24.854,24.854,0,0,0-9.54,1.34Zm143.52,52.97c-8.57-1.13-16.21-7.37-21.46-17.85-6.55-13.08-9.58-33.21-6.89-55.21s10.51-40.81,20.02-51.91c7.69-8.98,16.69-13.18,25.35-12.12s16.37,7.32,21.67,17.88c6.55,13.08,9.58,33.21,6.88,55.21s-10.5,40.8-20.02,51.91c-7.68,8.97-16.69,13.18-25.34,12.12Zm15.31-123.19c-4.6-.57-8.92,2.55-13.01,7.32-8.13,9.5-14.44,25.71-16.75,44.51s-.09,36.06,5.51,47.24c2.79,5.57,6.2,9.62,10.74,10.24l.11.01c4.6.56,8.92-2.56,13.01-7.33,8.14-9.49,14.45-25.7,16.75-44.5s.1-36.06-5.5-47.24C1543.59,1373.02,1540.14,1368.95,1535.54,1368.39Zm-138.84-50.22c1.31.4,2.63.81,3.95,1.25,21.03,6.99,37.93,18.36,46.93,29.88,7.28,9.31,9.62,18.96,6.87,27.24s-10.4,14.61-21.81,17.71c-12.48,3.39-29.84,3-48.24-1.98l2.3-13.88c16.12,4.59,31.36,5.32,42.27,2.35,6.06-1.65,10.73-4.22,12.2-8.62s-.75-9.25-4.62-14.2c-7.7-9.85-22.34-19.24-40.31-25.21q-.93-.315-1.86-.6Zm48.96-6.46c-7.57-4.33-12.26-13.09-13.05-24.88-.97-14.59,4.03-34.33,15.04-53.56s25.48-33.56,38.56-40.11c10.56-5.29,20.49-5.68,28.06-1.35s12.26,13.08,13.05,24.87c.98,14.6-4.03,34.33-15.04,53.57s-25.48,33.55-38.56,40.11C1463.16,1315.65,1453.23,1316.04,1445.66,1311.71Zm154.04-10.55a45.115,45.115,0,0,1-7.65-5.91c-10.97-10.4-21.34-29.03-27.13-51.6s-5.67-43.89-1.07-58.29c3.75-11.73,10.62-19.2,19.07-21.37s18.07,1.08,27,9.55c5.96,5.65,11.73,13.72,16.7,23.52l-5.8,22.44c-5.14-15.48-12.54-28.22-20.53-35.8-4.74-4.49-9.41-7.3-13.89-6.15s-7.22,5.86-9.21,12.07c-4,12.5-3.73,30.98,1.29,50.55s13.69,35.9,23.2,44.93c.59.55,1.18,1.09,1.76,1.59Zm-92.38-97.2c-4.03-2.3-9.22-1.1-14.84,1.72-11.17,5.6-23.27,18.1-32.68,34.54s-14.05,33.2-13.22,45.68c.42,6.27,2.01,11.36,6.03,13.66s9.22,1.1,14.84-1.72c11.17-5.6,23.27-18.1,32.68-34.54s14.05-33.21,13.22-45.68C1512.93,1211.35,1511.34,1206.26,1507.32,1203.96Zm316.58,41.19a75.865,75.865,0,0,1,22.16-7.59c11.67-1.81,21.24.86,27.13,7.3s7.67,16.2,4.82,27.67a60.9,60.9,0,0,1-3.21,9.37l-18.79,5.59a62.455,62.455,0,0,0,8.41-18.34c1.52-6.1,1.56-11.43-1.57-14.85s-8.44-3.87-14.65-2.9c-7.15,1.11-15.3,4.32-23.62,9.32Zm170.39-98.72.08,14.78c-9.78,3.84-20.44,10.62-30.41,19.73-13.99,12.78-23.53,27.33-26.55,39.46-1.52,6.09-1.56,11.42,1.57,14.85s8.44,3.86,14.64,2.9c12.17-1.89,27.24-9.88,41.06-22.33l.1,18.02c-13.49,10.09-27.44,16.34-39.01,18.14-11.67,1.81-21.24-.85-27.13-7.29s-7.67-16.21-4.82-27.68c3.54-14.19,14.33-31.45,30.7-46.4C1967.56,1158.69,1981.75,1150.42,1994.29,1146.43Zm-178.02-76.76a21.811,21.811,0,0,1,4.09-3.08c7.54-4.38,17.47-4.06,28.07,1.16,13.12,6.46,27.7,20.68,38.84,39.84s16.28,38.86,15.4,53.46c-.7,11.8-5.34,20.58-12.88,24.97s-17.47,4.06-28.07-1.16c-13.12-6.47-27.69-20.68-38.83-39.84-1.29-2.22-2.5-4.45-3.63-6.67Zm58.67,44.57c-9.49-16.19-21.57-28.45-32.7-33.93-5.63-2.78-10.84-3.94-14.84-1.62s-5.57,7.43-5.94,13.7c-.75,12.48,4.01,29.21,13.53,45.59s21.71,28.79,32.92,34.32c5.64,2.78,10.84,3.94,14.85,1.61s5.56-7.42,5.94-13.69c.74-12.48-4.01-29.22-13.54-45.59Zm-436.54-47.4a125.489,125.489,0,0,1,23.22,16.18c16.68,14.59,27.85,31.61,31.69,45.73,3.1,11.4,1.53,21.21-4.22,27.77s-15.25,9.44-26.96,7.88c-11.01-1.46-24.25-6.89-37.29-15.81l2.56-15.44c12.63,9.79,25.79,15.94,36.58,17.37,6.22.83,11.52.27,14.58-3.21s2.89-8.82,1.24-14.88c-3.28-12.07-13.14-26.4-27.4-38.87a115.47,115.47,0,0,0-16.43-12.05Zm101.99,56.62c-20.35-9.6-36.04-23.01-43.78-35.59-6.27-10.19-7.5-20.11-3.78-28s12.16-13.25,24.01-14.9c14.51-2.02,34.64,1.48,54.83,10.91l.48.22c20.35,9.59,36.03,23.01,43.78,35.59,6.26,10.19,7.5,20.11,3.78,28s-12.16,13.25-24.01,14.9C1581.07,1136.62,1560.74,1133.05,1540.39,1123.46Zm453.72-10.08c-.76.81-1.53,1.6-2.3,2.33-8.54,8.17-17.91,11.47-26.42,9.56s-15.57-8.9-19.8-19.93c-5.22-13.66-6.26-33.99-1.4-55.62s14.47-39.57,25.04-49.68c7.8-7.466,16.29-10.861,24.18-9.939l.09,14.3c-.3-.1-.61-.19-.92-.26-4.52-1.02-9.13,1.67-13.67,6.01-9.03,8.65-16.91,24.15-21.06,42.64s-3.65,35.87.82,47.54c2.24,5.87,5.26,10.26,9.79,11.28s9.13-1.67,13.67-6.01a62.776,62.776,0,0,0,11.84-16.6Zm-427.93-44.62c-17.48-8.24-34.86-11.67-47.42-9.92-6.29.87-11.29,2.81-13.27,7s-.29,9.28,3.04,14.69c6.6,10.72,20.14,21.85,37.42,30.07l.41.2c17.47,8.24,34.85,11.67,47.41,9.92,6.3-.87,11.3-2.81,13.27-7s.29-9.28-3.04-14.69C1597.36,1088.23,1583.65,1077,1566.18,1068.76Zm141.18-27.31c-7.44-19.62-9.41-38.71-6.6-52.414,2.37-11.575,8.21-19.615,16.3-22.883s17.86-1.54,27.61,5.135c10.05,6.875,20.32,19.2,28.28,34.982l-12.34,6.62c-6.72-13.517-15.27-24.183-23.84-30.05-5.19-3.548-10.17-5.444-14.47-3.707s-6.56,6.563-7.83,12.716c-2.31,11.281-.51,26.811,5.34,42.921ZM1507.29,918.115a129.159,129.159,0,0,1,15.84,12.712c16.16,15.168,26.73,32.571,30.07,46.811,2.7,11.5.78,21.249-5.19,27.612s-15.57,8.89-27.22,6.92c-14.43-2.43-32.46-11.87-48.63-27.043-3.26-3.067-6.3-6.225-9.1-9.43q3.345-7.344,6.82-13.663a117.371,117.371,0,0,0,11.87,12.885c13.81,12.966,29.04,21.368,41.37,23.451,6.19,1.046,11.51.675,14.68-2.705s3.21-8.712,1.77-14.826c-2.86-12.172-12.21-26.839-26.02-39.8a114.22,114.22,0,0,0-17.69-13.7A92.565,92.565,0,0,1,1507.29,918.115Zm378.32,10.2c14.67-16.329,31.64-27.193,45.68-30.871,11.43-2.995,21.22-1.321,27.73,4.483s9.29,15.341,7.62,27.038c-2.06,14.481-11.04,32.753-25.79,49.3s-31.88,27.554-46.03,31.254c-11.43,3-21.22,1.33-27.73-4.48s-9.29-15.34-7.62-27.038c2.06-14.48,11.04-32.753,25.79-49.3Zm-297.4,8.537c2.72-22,10.55-40.79,20.09-51.886,7.69-8.964,16.7-13.155,25.36-12.083s16.36,7.335,21.64,17.906c6.54,13.087,9.54,33.222,6.82,55.219s-10.56,40.79-20.09,51.886c-7.7,8.962-16.7,13.152-25.36,12.082s-16.36-7.33-21.64-17.9C1588.49,978.988,1585.49,958.852,1588.21,936.856Zm342.19,32.093c12.61-14.141,20.62-29.581,22.38-41.958.89-6.217.38-11.526-3.08-14.611s-8.79-2.981-14.86-1.389c-12.1,3.168-26.52,12.891-39.13,27.032s-20.62,29.58-22.38,41.958c-.89,6.217-.39,11.525,3.07,14.61s8.8,2.982,14.87,1.39C1903.37,992.812,1917.79,983.09,1930.4,968.949Zm-282.12-25.1c2.24-18.629.04-35.7-5.5-46.8-2.81-5.619-6.24-9.7-10.85-10.267s-8.92,2.547-13.02,7.311c-8.14,9.484-14.48,25.684-16.81,44.485s-.13,36.057,5.45,47.243c2.81,5.619,6.24,9.7,10.84,10.267s8.93-2.547,13.02-7.311c8.15-9.484,14.48-25.684,16.81-44.485Zm104.33-10.994c-17.02-13.858-28.7-30.278-33.06-44.122-3.55-11.27-2.36-21.132,3.12-27.917s14.87-10.028,26.64-8.931c14.56,1.358,33.25,9.435,50.49,23.361s29.08,30.5,33.47,44.448c3.55,11.271,2.35,21.133-3.13,27.918s-14.87,10.028-26.63,8.931c-14.57-1.358-33.25-9.435-50.5-23.361Zm38.4-46.718c-14.74-11.9-30.55-19.152-43-20.312-6.25-.584-11.53.181-14.44,3.787s-2.55,8.927-.67,14.917c3.73,11.833,14.01,25.641,28.56,37.482l.35.279c14.74,11.9,30.55,19.152,43,20.313,6.25.583,11.53-.181,14.44-3.787s2.55-8.927.66-14.917C1816.16,911.974,1805.75,898.042,1791.01,886.138Zm148.51-110.35a119.981,119.981,0,0,1,37.52,38.4,42.9,42.9,0,0,1-5,8.287c-8.84,11.652-25.57,23.261-46.5,30.554s-41.24,8.593-55.41,4.959c-11.45-2.936-19.2-9.157-22.06-17.392s-.67-17.923,6.47-27.336c8.84-11.653,25.57-23.261,46.5-30.555A118.112,118.112,0,0,1,1939.52,775.788Zm-78.23,60.2c-1.53-4.378.61-9.263,4.4-14.266,7.56-9.96,22.06-19.563,39.95-25.8s35.23-7.724,47.34-4.618c6.08,1.561,10.79,4.061,12.31,8.438s-.61,9.263-4.4,14.266c-7.56,9.96-22.06,19.563-39.95,25.8s-35.22,7.724-47.34,4.618C1867.52,842.864,1862.81,840.364,1861.29,835.987Zm-62.03-60.063a62.956,62.956,0,0,1,7.92,6.289c8.57,8.127,12.32,17.327,10.83,25.92s-8.13,15.989-18.94,20.746c-13.39,5.889-33.65,7.91-55.49,4.115-15.07-2.618-28.5-7.59-38.86-13.727l16.16-7.407a111.262,111.262,0,0,0,25.1,7.341c18.66,3.243,36.01,1.9,47.45-3.137,5.75-2.529,9.99-5.761,10.78-10.328s-2.1-9.041-6.66-13.36a59.147,59.147,0,0,0-13.73-9.37Z" fill="#ff7b6b" fill-rule="evenodd"/>
        </g>
        <g id="Group_17" data-name="Group 17">
          <path id="Path_56" data-name="Path 56" d="M1285.73,810.058l102.3,5.255,4.97,21s143.5-13.362,214.24-172.457l30.17,6.4-44.18-47.476,55.93-88.264S1850.67,683.8,1854.72,768.8c0,0,.07.931.12,2.6a73.318,73.318,0,0,1-101.03,69.674c-36.79-15.036-86.65-35.407-86.65-35.407s9.25,20.944,7.48,30.909l-149.48,79.747s-31.85-5.122-51.21-34.112c0,0,24.87,100.867-39.16,175.66a69.228,69.228,0,0,1-74.68,20.63c-21.64-7.32-43.26-27.51-52.71-75.78C1307.4,1002.72,1281.89,894.469,1285.73,810.058Z" fill="#ffd274" fill-rule="evenodd"/>
          <path id="Path_57" data-name="Path 57" d="M1413.73,984.377c-.04-.516-.16-2.076-.34-3.643-2.34-20.664-20.32-144.364-20.32-144.364l6.94-.912s18,123.811,20.33,144.49c.27,2.312.4,3.872.41,4.542a4.5,4.5,0,0,1-.15,1.3,3.324,3.324,0,0,1-2.06,2.318,3.384,3.384,0,0,1-2.67,0A3.515,3.515,0,0,1,1413.73,984.377Zm2.55-2.879a3.478,3.478,0,0,1,2.24.137A3.33,3.33,0,0,0,1416.28,981.5Z" fill="#de735a" fill-rule="evenodd"/>
          <path id="Path_58" data-name="Path 58" d="M1637.77,670.2l-11.8-2.169,129.84,134.921a3.5,3.5,0,1,0,5.04-4.854Z" fill="#de735a" fill-rule="evenodd"/>
          <path id="Path_59" data-name="Path 59" d="M1666.26,805.419a289.1,289.1,0,0,0-17.63-35.232,3.5,3.5,0,0,1,6-3.608s12.68,21.126,20.46,42.3Z" fill="#de735a" fill-rule="evenodd"/>
        </g>
      </g>
      <g id="PLANTS-LEFT">
        <path id="Path_60" data-name="Path 60" d="M902.013,1537.36s22.253-51.52,63.148-60.67c0,0,4.769,31.27-7.364,75.87,0,0,30.956-20.75,48.013-15.2,0,0-.53,30.01-21.4,56.66,0,0-20.344-48.78-80.38-24.38C904.03,1569.64,903.275,1540.84,902.013,1537.36Z" fill="#668ddb" fill-rule="evenodd"/>
        <path id="Path_61" data-name="Path 61" d="M494.9,1673.47s-45.954-28.83-60.966-111.2c0,0,7.6-1.52,23.686,6.03,0,0-21.254-39-11.624-80.46,0,0,34.7,9.82,64.423,52.06C510.418,1539.9,481.692,1610.07,494.9,1673.47Z" fill="#668ddb" fill-rule="evenodd"/>
        <path id="Path_62" data-name="Path 62" d="M1005.81,1676.47H494.9a3,3,0,0,1-2.984-2.689c-14.733-141.54,67.033-245.871,125.587-281.464,37.087-22.547,77.765-34.464,117.635-34.464,30.581,0,58.7,7.059,81.306,20.415,21.488,12.682,38.417,27.873,50.316,45.151,30.686,44.574,38.888,100.822,40.158,141.7,10.311-4.239,20.077-6.384,29.086-6.384,65.906,0,72.553,109.9,72.8,114.58a3,3,0,0,1-3,3.161Zm-508.195-6h504.954c-1.594-17.921-12.2-105.741-66.567-105.741-9.336,0-19.672,2.57-30.721,7.638a3,3,0,0,1-4.25-2.668c-.792-40.345-8.239-97.883-39.215-142.878-11.4-16.554-27.693-31.152-48.425-43.388-21.687-12.811-48.747-19.582-78.255-19.582-38.77,0-78.37,11.616-114.518,33.591C552.081,1439.106,486.07,1548.7,497.615,1670.47Z" fill="#0d2e3a"/>
        <path id="Path_63" data-name="Path 63" d="M992.474,1744.13a3,3,0,0,1-2.962-3.478c.061-.375,6.448-37.543,39.984-40.272.6-.049,1.235-.074,1.9-.074,13.614,0,41.4,10.61,58,39.083a3,3,0,0,1-2.584,4.511l-94.336.23Zm38.924-37.824c-.5,0-.97.018-1.416.054-23.192,1.887-31.375,23.231-33.73,31.761l85.139-.208C1065.328,1714.15,1041.17,1706.306,1031.4,1706.306Z" fill="#0f303c"/>
        <g id="Group_22" data-name="Group 22">
          <path id="Path_64" data-name="Path 64" d="M731.4,1700.1a3,3,0,0,1-2.948-2.464c-25.121-138.233-56.8-219.041-57.113-219.841a3,3,0,0,1,5.578-2.211c.319.8,32.2,82.1,57.439,220.979a3,3,0,0,1-2.955,3.537Z" fill="#668ddb"/>
          <path id="Path_65" data-name="Path 65" d="M691.808,1529.62s-9.137-31.79,10.956-41.78C702.764,1487.84,714.65,1507.01,691.808,1529.62Z" fill="#668ddb" fill-rule="evenodd"/>
          <g id="Group_18" data-name="Group 18" transform="translate(-77.855 -769.725)">
            <path id="Path_66" data-name="Path 66" d="M767.589,2299.345s-25.748-4.468-33.486-27.849C734.406,2268.613,764.017,2274.077,767.589,2299.345Z" fill="#668ddb" fill-rule="evenodd"/>
          </g>
          <g id="Group_19" data-name="Group 19" transform="translate(-57.112 -704.422)">
            <path id="Path_67" data-name="Path 67" d="M767.589,2299.345s-25.748-4.468-33.486-27.849C734.406,2268.613,764.017,2274.077,767.589,2299.345Z" fill="#668ddb" fill-rule="evenodd"/>
          </g>
          <g id="Group_20" data-name="Group 20" transform="matrix(-0.749, 0.662, -0.662, -0.749, -236.412, -636.323)">
            <path id="Path_68" data-name="Path 68" d="M767.591-2299.346s-25.748,4.468-33.486,27.849C734.407-2268.615,764.018-2274.079,767.591-2299.346Z" fill="#668ddb" fill-rule="evenodd"/>
          </g>
          <g id="Group_21" data-name="Group 21" transform="translate(-447.935 276.854) rotate(-18.94)">
            <path id="Path_69" data-name="Path 69" d="M672.353,1460.25v16.44a1.22,1.22,0,0,0,2.439,0v-16.38a41.446,41.446,0,0,1,8.308,1.34v15.04a1.22,1.22,0,0,0,2.439,0v-14.31a50.6,50.6,0,0,1,6.816,2.82,37.81,37.81,0,0,1,.874,8.14c0,15.94-9.719,28.89-21.69,28.89s-21.689-12.95-21.689-28.89a38,38,0,0,1,.568-6.59,47.252,47.252,0,0,1,7.122-3.55v13.49a1.22,1.22,0,0,0,2.439,0v-14.38a42.894,42.894,0,0,1,4.967-1.31v10.38a1.22,1.22,0,1,0,2.439,0V1460.6A38.3,38.3,0,0,1,672.353,1460.25Z" fill="#fddb81" fill-rule="evenodd"/>
          </g>
        </g>
        <g id="Group_24" data-name="Group 24">
          <g id="Group_23" data-name="Group 23">
            <path id="Path_70" data-name="Path 70" d="M513.9,1463.87S578.4,1552.69,628.7,1684.93a3,3,0,1,0,5.608-2.13c-50.621-133.08-115.561-222.46-115.561-222.46a3,3,0,0,0-4.855,3.53Z" fill="#668ddb" fill-rule="evenodd"/>
            <path id="Path_71" data-name="Path 71" d="M574.984,1556.42c.036-1.82-1.487-4.71-1.889-6.55a60.151,60.151,0,0,1-1.535-13.9,38.309,38.309,0,0,1,6.211-19.89c.281-.44,3.248-5.41,4.087-4.93,2.5,1.42,2.93,9.31,3.184,11.6,1.271,11.49-.92,24.19-9.2,32.78" fill="#668ddb" fill-rule="evenodd"/>
            <path id="Path_72" data-name="Path 72" d="M573.172,1554.5c-.39.41-2.07.26-2.678.24a56.129,56.129,0,0,1-7.537-.8c-7.889-1.25-15.989-3.22-22.6-7.9a38.882,38.882,0,0,1-3.943-3.18c-.806-.75-4.389-3.77-4.219-5.16.114-.93,2.794-.87,3.327-.9a37.865,37.865,0,0,1,10.843,1.36,64.182,64.182,0,0,1,9.715,3.39,44.567,44.567,0,0,1,13.436,8.89" fill="#668ddb" fill-rule="evenodd"/>
            <path id="Path_73" data-name="Path 73" d="M603.192,1617.37c-.106.37-2.561.05-2.887.03a55,55,0,0,1-9.257-1.74c-8.15-2.12-16.81-5.27-23.035-11.17a34.213,34.213,0,0,1-6-7.71c-.184-.32-1.4-2.02-1.052-2.45.764-.95,4.871.44,5.714.64,1.213.3,2.42.64,3.613,1.01,2.215.68,4.405,1.46,6.55,2.34a92.2,92.2,0,0,1,10.549,5.22,62.564,62.564,0,0,1,13.737,10.15" fill="#668ddb" fill-rule="evenodd"/>
            <path id="Path_74" data-name="Path 74" d="M602.5,1611.9c.18-1.44-.5-3.63-.514-5.17a59.438,59.438,0,0,1,1.21-12.37,56.388,56.388,0,0,1,3.093-10.32,45.358,45.358,0,0,1,5.76-10.11c.252-.33,1.873-2.76,2.513-2.42,1.063.56,1.436,3.8,1.635,4.76a32.779,32.779,0,0,1,.506,3.47,46.725,46.725,0,0,1,.182,6.16,52.7,52.7,0,0,1-7.17,24.9c-1.217,2.02-3.234,5.67-5.629,6.64" fill="#668ddb" fill-rule="evenodd"/>
          </g>
          <path id="Path_75" data-name="Path 75" d="M504.563,1421.36a39.248,39.248,0,0,1,8.968-.61,41.139,41.139,0,0,1,4.077,4.87c10.086,14.07,9.742,31.61-.768,39.14s-27.233,2.23-37.319-11.85a41.364,41.364,0,0,1-3.994-6.86,60.662,60.662,0,0,1,4.549-7.74l6.394,8.98a2.135,2.135,0,0,0,3.477-2.48l-7.165-10.06a44.043,44.043,0,0,1,4.345-4.55l9.619,13.51a2.135,2.135,0,1,0,3.477-2.48l-9.777-13.73a34.972,34.972,0,0,1,9.691-4.99l7.125,10.01a2.135,2.135,0,0,0,3.477-2.48Z" fill="#fddb81" fill-rule="evenodd"/>
        </g>
        <g id="Group_30" data-name="Group 30" transform="translate(1457.03 -36.424) rotate(180)">
          <g id="Group_29" data-name="Group 29">
            <path id="Path_76" data-name="Path 76" d="M513.9-1463.87s18.044-26.01,42.487-69.03c.511-.9,1.745-3.64,1.745-3.64l2.193,9.05-1.27,2.49-40.3,64.66a2.994,2.994,0,0,1-4.19.66A3,3,0,0,1,513.9-1463.87Z" fill="#668ddb" fill-rule="evenodd"/>
            <g id="Group_25" data-name="Group 25" transform="translate(31.974 -65.953)">
              <path id="Path_77" data-name="Path 77" d="M504.911-1429.572c.032,1.672-1.306,4.326-1.659,6.016a57.682,57.682,0,0,0-1.348,12.767,36.334,36.334,0,0,0,5.454,18.269c.247.4,2.852,4.969,3.589,4.528,2.194-1.3,2.573-8.551,2.8-10.655,1.116-10.554-.808-22.219-8.076-30.109" fill="#668ddb" fill-rule="evenodd"/>
            </g>
            <g id="Group_26" data-name="Group 26" transform="translate(-34.073 59.252)">
              <path id="Path_78" data-name="Path 78" d="M573.172-1554.5c-.39-.41-2.07-.26-2.678-.24a56.129,56.129,0,0,0-7.537.8c-7.889,1.25-15.989,3.22-22.6,7.9a38.882,38.882,0,0,0-3.943,3.18c-.806.75-4.389,3.77-4.219,5.16.114.93,2.794.87,3.327.9a37.865,37.865,0,0,0,10.843-1.36,64.182,64.182,0,0,0,9.715-3.39,44.567,44.567,0,0,0,13.436-8.89" fill="#668ddb" fill-rule="evenodd"/>
            </g>
            <g id="Group_27" data-name="Group 27" transform="translate(35.715 -116.51)">
              <path id="Path_79" data-name="Path 79" d="M519.3-1407.6c-.091-.322-2.2-.044-2.485-.026a46.893,46.893,0,0,0-7.97,1.514c-7.016,1.845-14.472,4.586-19.831,9.721a29.732,29.732,0,0,0-5.166,6.71c-.158.279-1.207,1.758-.906,2.132.658.827,4.194-.383,4.919-.557,1.044-.261,2.083-.557,3.11-.879,1.907-.592,3.792-1.271,5.639-2.036a79.034,79.034,0,0,0,9.082-4.543,53.9,53.9,0,0,0,11.826-8.833" fill="#668ddb" fill-rule="evenodd"/>
            </g>
            <g id="Group_28" data-name="Group 28" transform="translate(-96.907 -153.588)">
              <path id="Path_80" data-name="Path 80" d="M645.4-1357.994c.193,1.213-.537,3.058-.551,4.356a39.794,39.794,0,0,0,1.3,10.422,40.285,40.285,0,0,0,3.313,8.694,37.139,37.139,0,0,0,6.17,8.517c.27.278,2.006,2.325,2.692,2.039,1.139-.472,1.538-3.2,1.751-4.01a22.134,22.134,0,0,0,.542-2.923,31.006,31.006,0,0,0,.195-5.19,37.677,37.677,0,0,0-7.681-20.978c-1.3-1.7-3.464-4.777-6.03-5.594" fill="#668ddb" fill-rule="evenodd"/>
            </g>
          </g>
          <path id="Path_81" data-name="Path 81" d="M504.563-1421.36a39.248,39.248,0,0,0,8.968.61,41.139,41.139,0,0,0,4.077-4.87c10.086-14.07,9.742-31.61-.768-39.14s-27.233-2.23-37.319,11.85a41.364,41.364,0,0,0-3.994,6.86,60.662,60.662,0,0,0,4.549,7.74l6.394-8.98a2.137,2.137,0,0,1,2.976-.5,2.14,2.14,0,0,1,.5,2.98l-7.165,10.06a44.043,44.043,0,0,0,4.345,4.55l9.619-13.51a2.138,2.138,0,0,1,2.977-.5,2.139,2.139,0,0,1,.5,2.98l-9.777,13.73a34.972,34.972,0,0,0,9.691,4.99l7.125-10.01a2.137,2.137,0,0,1,2.976-.5,2.14,2.14,0,0,1,.5,2.98Z" fill="#fddb81" fill-rule="evenodd"/>
        </g>
      </g>
      <g id="PLANTS-RIGHT">
        <path id="Path_82" data-name="Path 82" d="M1749.19,1565.99s-26.93-46.71-24.17-78.31c0,0,17.12,4.76,29.94,23.41,0,0-15.23-63.41-5.77-89.33,0,0,27.76,12.76,41.06,43.07,0,0-18.37,54.85-20.17,107.81Z" fill="#668ddb" fill-rule="evenodd"/>
        <g id="Group_31" data-name="Group 31" transform="translate(2674.11 3.001) rotate(180)">
          <path id="Path_83" data-name="Path 83" d="M1011.95-1686.86a3,3,0,0,1,2.208.969,3,3,0,0,1,.781,2.3c-.453,5.081-11.867,124.425-80.334,124.425-8.687,0-17.983-2-27.687-5.952-1.27,40.873-9.47,97.126-40.158,141.7a155.569,155.569,0,0,1-49.127,46.252c-22.093,13.051-49.839,19.949-80.238,19.949-40.664,0-82.122-12.137-119.891-35.1-61.79-37.56-142.4-152.01-128.157-288.854a3,3,0,0,1,2.967-2.689l519.622-3ZM934.6-1565.169c57.057,0,71.658-96.486,73.993-115.671l-513.551,2.965c-12.659,133.052,65.532,243.935,125.573,280.432,36.83,22.391,77.21,34.225,116.775,34.225,29.326,0,56.016-6.61,77.186-19.115a149.614,149.614,0,0,0,47.237-44.489c30.976-44.995,38.422-102.532,39.214-142.877a3,3,0,0,1,1.4-2.482,3,3,0,0,1,2.846-.186C915.693-1567.591,925.559-1565.169,934.6-1565.169Z" fill="#0d2e3a"/>
        </g>
        <g id="Group_32" data-name="Group 32" transform="translate(-8.04 14.139)">
          <path id="Path_84" data-name="Path 84" d="M2106.49,1684.3s51.44-87.72,114.41-83.45c0,0,.21,20.58-21.06,48.36,0,0,14.95-10.45,41.22-9.31,0,0-2.79,19.1-28.62,46.96Z" fill="#668ddb" fill-rule="evenodd"/>
        </g>
        <g id="Group_38" data-name="Group 38" transform="translate(2999.64 210.33) rotate(-167.613)">
          <g id="Group_33" data-name="Group 33" transform="translate(43.358 -78.665)">
            <path id="Path_85" data-name="Path 85" d="M504.911-1429.572c.032,1.672-1.306,4.326-1.659,6.016a57.682,57.682,0,0,0-1.348,12.767,36.334,36.334,0,0,0,5.454,18.269c.247.4,2.852,4.969,3.589,4.528,2.194-1.3,2.573-8.551,2.8-10.655,1.116-10.554-.808-22.219-8.076-30.109" fill="#668ddb" fill-rule="evenodd"/>
          </g>
          <g id="Group_34" data-name="Group 34" transform="translate(2974.931 -438.033) rotate(167.613)">
            <path id="Path_86" data-name="Path 86" d="M2058.582,1704a3,3,0,0,1-2.857-3.918c36.6-113.995,129.4-179.792,130.329-180.443a3,3,0,0,1,3.435,4.92c-.917.641-92.093,65.348-128.051,177.358A3,3,0,0,1,2058.582,1704Z" fill="#668ddb"/>
          </g>
          <path id="Path_87" data-name="Path 87" d="M504.563-1421.36a39.248,39.248,0,0,0,8.968.61,41.139,41.139,0,0,0,4.077-4.87c10.086-14.07,9.742-31.61-.768-39.14s-27.233-2.23-37.319,11.85a41.364,41.364,0,0,0-3.994,6.86,60.662,60.662,0,0,0,4.549,7.74l6.394-8.98a2.137,2.137,0,0,1,2.976-.5,2.14,2.14,0,0,1,.5,2.98l-7.165,10.06a44.043,44.043,0,0,0,4.345,4.55l9.619-13.51a2.138,2.138,0,0,1,2.977-.5,2.139,2.139,0,0,1,.5,2.98l-9.777,13.73a34.972,34.972,0,0,0,9.691,4.99l7.125-10.01a2.137,2.137,0,0,1,2.976-.5,2.14,2.14,0,0,1,.5,2.98Z" fill="#fddb81" fill-rule="evenodd"/>
          <g id="Group_35" data-name="Group 35" transform="translate(-27.968 48.814)">
            <path id="Path_88" data-name="Path 88" d="M573.172-1554.5c-.39-.41-2.07-.26-2.678-.24a56.129,56.129,0,0,0-7.537.8c-7.889,1.25-15.989,3.22-22.6,7.9a38.882,38.882,0,0,0-3.943,3.18c-.806.75-4.389,3.77-4.219,5.16.114.93,2.794.87,3.327.9a37.865,37.865,0,0,0,10.843-1.36,64.182,64.182,0,0,0,9.715-3.39,44.567,44.567,0,0,0,13.436-8.89" fill="#668ddb" fill-rule="evenodd"/>
          </g>
          <g id="Group_36" data-name="Group 36" transform="translate(55.93 -156.411)">
            <path id="Path_89" data-name="Path 89" d="M519.3-1407.6c-.091-.322-2.2-.044-2.485-.026a46.893,46.893,0,0,0-7.97,1.514c-7.016,1.845-14.472,4.586-19.831,9.721a29.732,29.732,0,0,0-5.166,6.71c-.158.279-1.207,1.758-.906,2.132.658.827,4.194-.383,4.919-.557,1.044-.261,2.083-.557,3.11-.879,1.907-.592,3.792-1.271,5.639-2.036a79.034,79.034,0,0,0,9.082-4.543,53.9,53.9,0,0,0,11.826-8.833" fill="#668ddb" fill-rule="evenodd"/>
          </g>
          <g id="Group_37" data-name="Group 37" transform="translate(-72.132 -195.392)">
            <path id="Path_90" data-name="Path 90" d="M645.4-1357.994c.193,1.213-.537,3.058-.551,4.356a39.794,39.794,0,0,0,1.3,10.422,40.285,40.285,0,0,0,3.313,8.694,37.139,37.139,0,0,0,6.17,8.517c.27.278,2.006,2.325,2.692,2.039,1.139-.472,1.538-3.2,1.751-4.01a22.134,22.134,0,0,0,.542-2.923,31.006,31.006,0,0,0,.195-5.19,37.677,37.677,0,0,0-7.681-20.978c-1.3-1.7-3.464-4.777-6.03-5.594" fill="#668ddb" fill-rule="evenodd"/>
          </g>
        </g>
        <g id="Group_45" data-name="Group 45" transform="translate(1092.25 -13.235)">
          <g id="Group_39" data-name="Group 39" transform="translate(-422.922 225.393) rotate(-13.206)">
            <path id="Path_91" data-name="Path 91" d="M691.808,1529.62s-9.137-31.79,10.956-41.78C702.764,1487.84,714.65,1507.01,691.808,1529.62Z" fill="#668ddb" fill-rule="evenodd"/>
          </g>
          <g id="Group_40" data-name="Group 40" transform="matrix(0.932, -0.364, 0.364, 0.932, -950.773, -302.977)">
            <path id="Path_92" data-name="Path 92" d="M767.588,2299.34s-25.748-4.468-33.486-27.849C734.4,2268.608,764.016,2274.072,767.588,2299.34Z" fill="#668ddb" fill-rule="evenodd"/>
          </g>
          <g id="Group_41" data-name="Group 41" transform="translate(-133.231 -672.822)">
            <path id="Path_93" data-name="Path 93" d="M767.589,2299.345s-25.748-4.468-33.486-27.849C734.406,2268.613,764.017,2274.077,767.589,2299.345Z" fill="#668ddb" fill-rule="evenodd"/>
          </g>
          <g id="Group_42" data-name="Group 42" transform="matrix(-0.749, 0.662, -0.662, -0.749, -307.908, -601.206)">
            <path id="Path_94" data-name="Path 94" d="M767.591-2299.346s-25.748,4.468-33.486,27.849C734.407-2268.615,764.018-2274.079,767.591-2299.346Z" fill="#668ddb" fill-rule="evenodd"/>
          </g>
          <g id="Group_43" data-name="Group 43" transform="translate(-1092.25 13.235)">
            <path id="Path_95" data-name="Path 95" d="M1754.956,1704.171a3,3,0,0,1-2.959-2.531c-20.493-129.3-101.7-201.8-102.515-202.514a3,3,0,0,1,3.956-4.511c.834.731,83.656,74.665,104.485,206.086a3,3,0,0,1-2.967,3.47Z" fill="#668ddb"/>
          </g>
          <g id="Group_44" data-name="Group 44" transform="matrix(0.693, -0.721, 0.721, 0.693, -983.407, 962.032)">
            <path id="Path_96" data-name="Path 96" d="M672.353,1460.25v16.44a1.22,1.22,0,0,0,2.439,0v-16.38a41.446,41.446,0,0,1,8.308,1.34v15.04a1.22,1.22,0,0,0,2.439,0v-14.31a50.6,50.6,0,0,1,6.816,2.82,37.81,37.81,0,0,1,.874,8.14c0,15.94-9.719,28.89-21.69,28.89s-21.689-12.95-21.689-28.89a38,38,0,0,1,.568-6.59,47.252,47.252,0,0,1,7.122-3.55v13.49a1.22,1.22,0,0,0,2.439,0v-14.38a42.894,42.894,0,0,1,4.967-1.31v10.38a1.22,1.22,0,1,0,2.439,0V1460.6A38.3,38.3,0,0,1,672.353,1460.25Z" fill="#fddb81" fill-rule="evenodd"/>
          </g>
        </g>
      </g>
      <g id="PRINKLES">
        <path id="Path_97" data-name="Path 97" d="M913.354,476.19l14.056-15.752,23.521,34.93-14.572,11.741Zm36.712-48.828L973.491,459.4l14.152-10.414-22.978-37.295Z" fill="#fd4c3d" fill-rule="evenodd"/>
        <path id="Path_98" data-name="Path 98" d="M1700.85,386.047l39.25-33.27,9.09,18.459-39.21,28.448ZM1655.54,360.9l22.09-41.841,15.49,13.822-22.51,32.85Z" fill="#fd4c3d" fill-rule="evenodd"/>
      </g>
    </g>
    <text id="S" transform="translate(83 1068)" fill="#707070" font-size="20" font-family="SegoeUI, Segoe UI"><tspan x="0" y="0">S</tspan></text>
    <text id="T_" data-name="T " transform="translate(83 1068)" fill="#707070" font-size="20" font-family="SegoeUI, Segoe UI"><tspan x="0" y="0">T </tspan></text>
    <text id="O" transform="translate(83 1068)" fill="#707070" font-size="20" font-family="SegoeUI, Segoe UI"><tspan x="0" y="0">O</tspan></text>
    <text id="R" transform="translate(83 1068)" fill="#707070" font-size="20" font-family="SegoeUI, Segoe UI"><tspan x="0" y="0">R</tspan></text>
    <path id="Union_1" data-name="Union 1" d="M745.44,1319.648l13.088-6.1q5.983-2.791,10.7-1.8a8.981,8.981,0,0,1,6.674,5.188,10.741,10.741,0,0,1,.859,7.024,11.814,11.814,0,0,1-3.777,6.244l.054.115a11.876,11.876,0,0,1,8.271-.022,10.581,10.581,0,0,1,5.772,5.73,11.464,11.464,0,0,1-.174,10.517,18.225,18.225,0,0,1-9,8.188l-13.232,6.169Zm22.361,17.238-4.948,2.308,6.089,13.059,5.839-2.723a9.8,9.8,0,0,0,5.087-4.525,6.677,6.677,0,0,0-.188-5.848,6.055,6.055,0,0,0-5.811-3.9A14.782,14.782,0,0,0,767.8,1336.885Zm-8.006-17.243-4.976,2.32,5.473,11.736,4.43-2.066a9.385,9.385,0,0,0,4.81-4.291,6.445,6.445,0,0,0-.192-5.707,5.018,5.018,0,0,0-4.789-3.26A11.557,11.557,0,0,0,759.8,1319.642Zm34.141,19q-7.6-4.238-10.759-13.958-3.394-10.444.321-18.525t13.555-11.279q9.115-2.963,16.646,1.265t10.7,13.977q3.443,10.595-.262,18.607t-13.243,11.11a24.276,24.276,0,0,1-7.51,1.27A19.1,19.1,0,0,1,793.936,1338.645Zm4.805-37.336a12.661,12.661,0,0,0-8.232,7.581q-2.287,5.648.068,12.892,2.344,7.214,7.4,10.444a12.283,12.283,0,0,0,10.91,1.328,12.868,12.868,0,0,0,8.447-7.384q2.229-5.362-.223-12.909-2.52-7.759-7.38-10.851a11.666,11.666,0,0,0-6.382-1.881A14.884,14.884,0,0,0,798.741,1301.309Zm307.7,20.341,17.783-41.894,22.584,9.586-2.505,5.9-15.63-6.635-5.035,11.862,14.4,6.114-2.492,5.873-14.4-6.114-5.258,12.387,16.565,7.032-2.493,5.873Zm-269.068,1.139q-7.675-4.1-11-13.767-3.576-10.383,0-18.528t13.356-11.514q9.063-3.12,16.666.975t10.941,13.789q3.626,10.533.063,18.608t-13.047,11.34a24.053,24.053,0,0,1-7.842,1.4A19.084,19.084,0,0,1,837.378,1322.789Zm4.153-37.413a12.663,12.663,0,0,0-8.1,7.723q-2.187,5.688.292,12.89,2.471,7.171,7.58,10.313a12.28,12.28,0,0,0,10.931,1.137,12.865,12.865,0,0,0,8.316-7.529q2.136-5.4-.448-12.9-2.655-7.713-7.568-10.72a11.667,11.667,0,0,0-6.2-1.772A14.739,14.739,0,0,0,841.531,1285.375Zm254.368,33.511-3.627-13.719a25.541,25.541,0,0,0-1.054-3.29,11.571,11.571,0,0,0-1.292-2.4,6.434,6.434,0,0,0-1.723-1.65,8.8,8.8,0,0,0-2.375-1.044l-2.929-.84-5.092,17.756-7.231-2.074,12.545-43.749,14.4,4.128a21.682,21.682,0,0,1,5.465,2.36,13.723,13.723,0,0,1,3.882,3.506,10.736,10.736,0,0,1,1.946,4.553,12.085,12.085,0,0,1-.4,5.482,13.157,13.157,0,0,1-1.906,4.059,11.518,11.518,0,0,1-2.941,2.888,12.422,12.422,0,0,1-3.791,1.7,15.87,15.87,0,0,1-4.484.5l-.035.122a11.755,11.755,0,0,1,1.651,2.074q.652,1.062,1.2,2.144a20.775,20.775,0,0,1,1.016,2.389q.467,1.306,1,3.011l4.254,14.526Zm-11.311-28.832,6.041,1.733a9.313,9.313,0,0,0,3.245.369,7.362,7.362,0,0,0,2.885-.79,7.046,7.046,0,0,0,2.3-1.916,8.5,8.5,0,0,0,1.481-2.976,6.5,6.5,0,0,0-.575-5.481,8.632,8.632,0,0,0-5.2-3.4l-6.1-1.75Zm-218.167-18.1,7.36-1.7,4.812,20.844.123-.029a10.545,10.545,0,0,1,.7-1.759l10.413-22.762,8.813-2.035-12.5,25.3,24.067,18.743-9.587,2.213-20.115-16.724a11.507,11.507,0,0,1-1.408-1.3l-.124.029,5.041,21.833-7.36,1.7Zm183.335,35.739q-9.743-1.369-14.717-8.51t-3.551-17.261q1.528-10.874,8.411-16.51t17.127-4.2q9.492,1.335,14.407,8.435t3.488,17.253q-1.55,11.031-8.392,16.609a19.821,19.821,0,0,1-12.92,4.46A27.693,27.693,0,0,1,1049.755,1307.7ZM1045,1270.941q-4.532,4.074-5.592,11.617-1.056,7.512,2.071,12.631a12.28,12.28,0,0,0,9.224,5.975,12.866,12.866,0,0,0,10.829-2.933q4.354-3.842,5.458-11.7,1.135-8.077-1.876-12.988a12.394,12.394,0,0,0-9.392-5.807,15.276,15.276,0,0,0-2.128-.153A12.471,12.471,0,0,0,1045,1270.941ZM916.957,1306.8a10.443,10.443,0,0,1-2.686-.488l-1.75-7.576a12.009,12.009,0,0,0,2.813,1.11,19.326,19.326,0,0,0,3.273.563,24.262,24.262,0,0,0,3.336.06,17.241,17.241,0,0,0,2.971-.393q4.639-1.071,6.555-3.142a5.22,5.22,0,0,0,1.238-5.009,5.03,5.03,0,0,0-1.39-2.562,8.168,8.168,0,0,0-2.607-1.629,22.869,22.869,0,0,0-3.626-1.1q-2.044-.458-4.368-.93-2.535-.686-4.77-1.472a18.567,18.567,0,0,1-4.018-1.955,11.756,11.756,0,0,1-3.039-2.866,11.318,11.318,0,0,1-1.841-4.233,10.478,10.478,0,0,1,.154-5.752,12.192,12.192,0,0,1,2.833-4.661,17.443,17.443,0,0,1,4.728-3.436,25.553,25.553,0,0,1,5.831-2.112q6.958-1.606,10.508-.764l1.678,7.267a16.627,16.627,0,0,0-10.338-.479,17.832,17.832,0,0,0-3.191,1.062,9.943,9.943,0,0,0-2.671,1.692,6.452,6.452,0,0,0-1.666,2.306,4.591,4.591,0,0,0-.183,2.876,5.214,5.214,0,0,0,1.211,2.424,6.789,6.789,0,0,0,2.266,1.562,18.906,18.906,0,0,0,3.31,1.076q1.913.455,4.4.923,2.6.671,4.961,1.525a21.164,21.164,0,0,1,4.3,2.1,13.241,13.241,0,0,1,3.3,3,10.748,10.748,0,0,1,1.944,4.258,11.371,11.371,0,0,1-.047,6,11.257,11.257,0,0,1-2.794,4.619,16.746,16.746,0,0,1-4.819,3.327,30.683,30.683,0,0,1-6.189,2.113,27.883,27.883,0,0,1-2.776.462q-1.662.205-3.438.273-.663.025-1.3.025Q917.974,1306.872,916.957,1306.8Zm94.82-3.875,4.087-38.887-12.973-1.364.67-6.376,33.489,3.52-.67,6.376-13.005-1.366-4.087,38.887Zm-29.628-1.338q-1.666-.174-3.412-.508a31.345,31.345,0,0,1-3.3-.81,10.413,10.413,0,0,1-2.507-1.079v-7.775a12.027,12.027,0,0,0,2.491,1.714,19.281,19.281,0,0,0,3.063,1.285,24.044,24.044,0,0,0,3.237.809,17.227,17.227,0,0,0,2.984.286q4.761,0,7.094-1.588a5.219,5.219,0,0,0,2.333-4.6,5.02,5.02,0,0,0-.778-2.809,8.144,8.144,0,0,0-2.174-2.173,22.8,22.8,0,0,0-3.285-1.889q-1.889-.9-4.046-1.888-2.317-1.238-4.316-2.507a18.564,18.564,0,0,1-3.475-2.809,11.736,11.736,0,0,1-2.318-3.475,11.319,11.319,0,0,1-.841-4.539,10.479,10.479,0,0,1,1.444-5.57,12.207,12.207,0,0,1,3.809-3.9,17.482,17.482,0,0,1,5.379-2.285,25.576,25.576,0,0,1,6.158-.745q7.141,0,10.41,1.618v7.458a16.629,16.629,0,0,0-9.966-2.793,17.874,17.874,0,0,0-3.349.318,9.974,9.974,0,0,0-2.984,1.047,6.467,6.467,0,0,0-2.142,1.873,4.59,4.59,0,0,0-.825,2.761,5.224,5.224,0,0,0,.635,2.634,6.794,6.794,0,0,0,1.857,2.031,18.9,18.9,0,0,0,2.983,1.793q1.762.874,4.079,1.889,2.38,1.237,4.491,2.6a21.23,21.23,0,0,1,3.713,3.015,13.273,13.273,0,0,1,2.539,3.667,10.769,10.769,0,0,1,.936,4.586,10.766,10.766,0,0,1-5.157,9.712,16.746,16.746,0,0,1-5.443,2.158,30.682,30.682,0,0,1-6.507.667A27.806,27.806,0,0,1,982.148,1301.587Z" transform="translate(275.594 -1014.536)" fill="#ff7b6b"/>
    <path id="Union_1_-_Outline" data-name="Union 1 - Outline" d="M764.432,1361.56l-19.657-42.154,13.541-6.314a20.023,20.023,0,0,1,8.358-2.108,12.985,12.985,0,0,1,2.654.269,9.495,9.495,0,0,1,7.025,5.466,11.279,11.279,0,0,1,.894,7.343,11.887,11.887,0,0,1-2.769,5.331,13.325,13.325,0,0,1,2.9-.333,11.285,11.285,0,0,1,4.111.765,11.108,11.108,0,0,1,6.043,5.985,11.991,11.991,0,0,1-.181,10.954,18.791,18.791,0,0,1-9.234,8.416Zm-18.328-41.67,18.811,40.342,12.779-5.958a17.82,17.82,0,0,0,8.764-7.961,10.9,10.9,0,0,0,.167-10.08,10.144,10.144,0,0,0-5.5-5.476,10.289,10.289,0,0,0-3.748-.7,13.275,13.275,0,0,0-4.184.728l-.422.141-.4-.852.273-.248a11.38,11.38,0,0,0,3.626-5.983,10.3,10.3,0,0,0-.824-6.7,8.436,8.436,0,0,0-6.324-4.909,11.979,11.979,0,0,0-2.449-.247A19.046,19.046,0,0,0,758.74,1314Zm22.6,33.027-6.512-13.965,5.4-2.519a15.33,15.33,0,0,1,6.28-1.674,6.544,6.544,0,0,1,6.264,4.185,7.184,7.184,0,0,1,.189,6.268,10.316,10.316,0,0,1-5.33,4.77Zm-5.183-13.482,5.667,12.153,5.386-2.512a9.366,9.366,0,0,0,4.844-4.281,6.15,6.15,0,0,0-.187-5.428,5.549,5.549,0,0,0-5.358-3.608,14.372,14.372,0,0,0-5.857,1.58Zm39.865,2.178a19.68,19.68,0,0,1-9.691-2.531,21.678,21.678,0,0,1-6.643-5.74,28.047,28.047,0,0,1-4.348-8.5,30.851,30.851,0,0,1-1.641-10.016,22.012,22.012,0,0,1,1.984-8.872,19.867,19.867,0,0,1,5.38-7.036,25.434,25.434,0,0,1,8.474-4.509,24,24,0,0,1,7.4-1.245,19.493,19.493,0,0,1,9.649,2.55,21.558,21.558,0,0,1,6.592,5.74,28.364,28.364,0,0,1,4.337,8.519,31.488,31.488,0,0,1,1.68,10.111,21.693,21.693,0,0,1-1.964,8.86,19.9,19.9,0,0,1-5.295,6.956,24.512,24.512,0,0,1-8.247,4.42A24.886,24.886,0,0,1,803.383,1341.612Zm.912-47.45a23,23,0,0,0-7.088,1.2c-6.392,2.077-10.852,5.781-13.255,11.012s-2.512,11.355-.3,18.161c2.055,6.326,5.6,10.927,10.527,13.676a18.691,18.691,0,0,0,9.2,2.4,23.888,23.888,0,0,0,7.356-1.245c6.192-2.012,10.547-5.661,12.943-10.845s2.484-11.336.24-18.242c-2.061-6.346-5.583-10.954-10.468-13.7A18.507,18.507,0,0,0,804.3,1294.162Zm.358,40.6h0a12.765,12.765,0,0,1-6.949-2.111c-3.454-2.208-6.013-5.812-7.6-10.711-1.6-4.922-1.618-9.375-.055-13.234a13.194,13.194,0,0,1,8.541-7.869,15.455,15.455,0,0,1,4.759-.8v0a12.211,12.211,0,0,1,6.651,1.96,15.409,15.409,0,0,1,4.42,4.4,26.535,26.535,0,0,1,3.168,6.719,24.739,24.739,0,0,1,1.306,7.146,15.14,15.14,0,0,1-1.1,6.109,13.4,13.4,0,0,1-8.755,7.667A14.21,14.21,0,0,1,804.654,1334.759Zm-1.309-33.73a14.459,14.459,0,0,0-4.45.755,12.235,12.235,0,0,0-7.923,7.293c-1.472,3.636-1.445,7.859.08,12.55,1.518,4.674,3.938,8.1,7.192,10.178a11.782,11.782,0,0,0,6.41,1.954h0a13.212,13.212,0,0,0,4.075-.681,12.445,12.445,0,0,0,8.14-7.1c1.432-3.444,1.352-7.671-.237-12.562-1.635-5.033-4.049-8.594-7.173-10.584a11.227,11.227,0,0,0-6.113-1.8Zm-43.3,33.333-5.9-12.642,5.429-2.531a12.094,12.094,0,0,1,4.966-1.314v1a11.135,11.135,0,0,0-4.544,1.22l-4.523,2.109,5.05,10.83,3.977-1.854a8.95,8.95,0,0,0,4.569-4.052,5.92,5.92,0,0,0-.193-5.282,4.52,4.52,0,0,0-4.336-2.971v-1a5.5,5.5,0,0,1,5.242,3.548,6.949,6.949,0,0,1,.191,6.132,9.906,9.906,0,0,1-5.05,4.53Zm370.178-2.073-24.438-10.375.2-.46,17.978-42.354.46.2,23.044,9.781-2.9,6.822-15.63-6.635-4.644,10.942,14.4,6.114-2.883,6.793-.46-.2L1121.414,1307l-4.867,11.466,16.565,7.032Zm-23.127-10.9,22.6,9.593,2.1-4.952-16.565-7.032,5.648-13.307.46.2,13.943,5.918,2.1-4.952-14.4-6.114,5.425-12.783,15.63,6.635,2.115-4.981-21.663-9.2Zm-260.589,4.209a19.666,19.666,0,0,1-9.37-2.365,21.674,21.674,0,0,1-6.742-5.623,28.039,28.039,0,0,1-4.5-8.423,30.847,30.847,0,0,1-1.816-9.986,22.014,22.014,0,0,1,1.828-8.906,19.877,19.877,0,0,1,5.257-7.129,25.432,25.432,0,0,1,8.394-4.657,23.8,23.8,0,0,1,7.728-1.376,19.5,19.5,0,0,1,9.338,2.384,21.561,21.561,0,0,1,6.691,5.625,28.379,28.379,0,0,1,4.486,8.442,31.5,31.5,0,0,1,1.856,10.079,21.687,21.687,0,0,1-1.809,8.893,19.9,19.9,0,0,1-5.173,7.048,26.423,26.423,0,0,1-16.173,5.995Zm.784-47.464a22.808,22.808,0,0,0-7.4,1.322c-6.354,2.188-10.748,5.97-13.061,11.242s-2.313,11.4.018,18.165c2.165,6.289,5.786,10.828,10.764,13.489a18.676,18.676,0,0,0,8.9,2.247,23.666,23.666,0,0,0,7.679-1.377c6.156-2.12,10.446-5.844,12.753-11.069s2.286-11.376-.078-18.243c-2.173-6.309-5.775-10.855-10.706-13.511A18.515,18.515,0,0,0,847.3,1278.13Zm257.819,43.919-9.627-2.76-3.7-13.993a25.182,25.182,0,0,0-1.034-3.23,11.136,11.136,0,0,0-1.235-2.3,5.965,5.965,0,0,0-1.589-1.523,8.352,8.352,0,0,0-2.241-.983l-2.448-.7-5.092,17.756-8.192-2.349,12.821-44.71,14.881,4.266a22.282,22.282,0,0,1,5.59,2.415,14.285,14.285,0,0,1,4.021,3.635,11.281,11.281,0,0,1,2.036,4.763,12.633,12.633,0,0,1-.411,5.707,13.716,13.716,0,0,1-1.98,4.212,12.069,12.069,0,0,1-3.068,3.012,12.977,12.977,0,0,1-3.942,1.772,15.935,15.935,0,0,1-3.624.512,11.569,11.569,0,0,1,1.053,1.436c.442.72.853,1.453,1.221,2.18a21.391,21.391,0,0,1,1.041,2.446c.312.871.651,1.89,1.008,3.029l0,.009Zm-8.806-3.565,7.336,2.1-4-13.65c-.353-1.124-.687-2.129-.994-2.987a20.394,20.394,0,0,0-.991-2.331c-.356-.7-.753-1.412-1.181-2.108a11.3,11.3,0,0,0-1.581-1.985l-.205-.208.223-.773.386.009a15.446,15.446,0,0,0,4.343-.481,11.983,11.983,0,0,0,3.64-1.634,11.072,11.072,0,0,0,2.814-2.764,12.725,12.725,0,0,0,1.833-3.906,11.65,11.65,0,0,0,.388-5.256,10.292,10.292,0,0,0-1.856-4.344,13.288,13.288,0,0,0-3.742-3.378,21.282,21.282,0,0,0-5.34-2.3l-13.919-3.99-12.269,42.788,6.269,1.8,5.092-17.756,3.409.977a9.35,9.35,0,0,1,2.51,1.105,6.961,6.961,0,0,1,1.856,1.777,12.125,12.125,0,0,1,1.35,2.5,26.167,26.167,0,0,1,1.075,3.356Zm-248.5.235h0a12.789,12.789,0,0,1-6.765-1.992c-3.491-2.146-6.112-5.7-7.791-10.576-1.685-4.893-1.781-9.345-.286-13.232a13.2,13.2,0,0,1,8.4-8.016,15.309,15.309,0,0,1,4.969-.889v1a14.315,14.315,0,0,0-4.643.835,12.237,12.237,0,0,0-7.8,7.43c-1.408,3.661-1.308,7.883.3,12.548,1.6,4.647,4.08,8.028,7.369,10.05a11.806,11.806,0,0,0,6.242,1.844h0a13.118,13.118,0,0,0,4.265-.754,12.441,12.441,0,0,0,8.014-7.24c1.372-3.47,1.219-7.694-.456-12.557-1.723-5-4.2-8.523-7.357-10.456a11.226,11.226,0,0,0-5.936-1.7v-1a12.213,12.213,0,0,1,6.459,1.845,15.4,15.4,0,0,1,4.5,4.322,26.539,26.539,0,0,1,3.284,6.662,24.719,24.719,0,0,1,1.431,7.122,15.137,15.137,0,0,1-.991,6.128,13.4,13.4,0,0,1-8.618,7.818A14.119,14.119,0,0,1,847.808,1318.719Zm28.476-1.814-.113-.487-10.351-44.834,8.335-1.924,4.595,19.9q.1-.224.216-.459l10.513-22.98,10.081-2.328-12.785,25.877,24.574,19.138-10.852,2.505-20.306-16.882c-.145-.121-.276-.232-.394-.333l4.821,20.881Zm-9.264-44.571,10.013,43.372,6.386-1.474-5.041-21.833.923-.214.2.253a10.62,10.62,0,0,0,1.334,1.227l19.923,16.564,8.322-1.921-23.56-18.348,12.211-24.716-7.545,1.742-10.317,22.55a10.094,10.094,0,0,0-.669,1.673l-.08.285-.9.21-4.813-20.845Zm186.588,36.144a28.33,28.33,0,0,1-3.923-.284,24.024,24.024,0,0,1-8.731-2.874,19.682,19.682,0,0,1-6.326-5.845,21.675,21.675,0,0,1-3.454-8.071,28.053,28.053,0,0,1-.182-9.546,30.85,30.85,0,0,1,2.916-9.722,22.016,22.016,0,0,1,5.673-7.1,20.588,20.588,0,0,1,13.413-4.6,29.613,29.613,0,0,1,4.1.3,23.176,23.176,0,0,1,8.531,2.84,19.545,19.545,0,0,1,6.218,5.806,21.563,21.563,0,0,1,3.409,8.049,28.37,28.37,0,0,1,.164,9.558,31.489,31.489,0,0,1-2.922,9.824,21.691,21.691,0,0,1-5.649,7.1A20.4,20.4,0,0,1,1053.608,1308.477Zm-.615-47.049a19.613,19.613,0,0,0-12.779,4.376c-4.467,3.657-7.236,9.1-8.232,16.192-.925,6.587.241,12.275,3.467,16.906s8.055,7.413,14.376,8.3a27.329,27.329,0,0,0,3.784.275,19.42,19.42,0,0,0,12.6-4.348c4.439-3.618,7.2-9.1,8.212-16.291.929-6.608-.217-12.293-3.4-16.9s-7.911-7.359-14.066-8.224A28.629,28.629,0,0,0,1052.993,1261.427Zm-133.942,45.945c-.725,0-1.442-.024-2.129-.072a10.982,10.982,0,0,1-2.817-.515l-.259-.091-2.066-8.945.986.553a11.567,11.567,0,0,0,2.7,1.063,18.915,18.915,0,0,0,3.189.549c.693.06,1.39.09,2.072.09.4,0,.8-.01,1.2-.031a16.83,16.83,0,0,0,2.884-.381c2.979-.688,5.1-1.695,6.3-2.994a4.709,4.709,0,0,0,1.118-4.557,4.562,4.562,0,0,0-1.249-2.314,7.711,7.711,0,0,0-2.449-1.526,22.472,22.472,0,0,0-3.546-1.076c-1.349-.3-2.816-.614-4.358-.928l-.031-.007c-1.7-.46-3.316-.959-4.806-1.484a19.151,19.151,0,0,1-4.125-2.008,12.314,12.314,0,0,1-3.167-2.987,11.864,11.864,0,0,1-1.926-4.417,11.018,11.018,0,0,1,.167-6.022,12.744,12.744,0,0,1,2.948-4.85,18.019,18.019,0,0,1,4.862-3.535,26.18,26.18,0,0,1,5.945-2.153,35.819,35.819,0,0,1,7.775-1.067,12.97,12.97,0,0,1,2.961.3l.3.072,1.967,8.521-.9-.379a13.787,13.787,0,0,0-5.369-1.023,20.852,20.852,0,0,0-4.663.571,17.417,17.417,0,0,0-3.1,1.032,9.494,9.494,0,0,0-2.538,1.606,5.985,5.985,0,0,0-1.54,2.128,4.069,4.069,0,0,0-.156,2.57,4.748,4.748,0,0,0,1.091,2.2,6.323,6.323,0,0,0,2.1,1.444,18.506,18.506,0,0,0,3.223,1.047c1.249.3,2.721.606,4.376.918l.032.007c1.738.449,3.422.967,5.006,1.539a21.768,21.768,0,0,1,4.4,2.154,13.8,13.8,0,0,1,3.422,3.113,11.291,11.291,0,0,1,2.037,4.453,11.26,11.26,0,0,1-2.973,11.087,17.323,17.323,0,0,1-4.961,3.428,31.334,31.334,0,0,1-6.29,2.148,28.521,28.521,0,0,1-2.828.471c-1.117.138-2.288.231-3.48.276C919.928,1307.363,919.483,1307.372,919.051,1307.372Zm-4.356-1.447a10.785,10.785,0,0,0,2.3.377c.664.046,1.357.07,2.059.07.419,0,.851-.008,1.285-.025,1.164-.044,2.307-.135,3.4-.269a27.538,27.538,0,0,0,2.726-.453,30.334,30.334,0,0,0,6.088-2.078,16.329,16.329,0,0,0,4.676-3.227,10.813,10.813,0,0,0,2.672-4.417,10.935,10.935,0,0,0,.037-5.742,10.3,10.3,0,0,0-1.851-4.063,12.807,12.807,0,0,0-3.175-2.888,20.77,20.77,0,0,0-4.2-2.053c-1.549-.56-3.2-1.067-4.9-1.507-1.664-.314-3.146-.625-4.406-.924a19.493,19.493,0,0,1-3.4-1.106,7.309,7.309,0,0,1-2.43-1.679,5.729,5.729,0,0,1-1.331-2.651,5.1,5.1,0,0,1,.209-3.182,6.978,6.978,0,0,1,1.792-2.484,10.493,10.493,0,0,1,2.8-1.778,18.412,18.412,0,0,1,3.281-1.092,21.851,21.851,0,0,1,4.888-.6,15.142,15.142,0,0,1,4.865.764l-1.4-6.047a12.62,12.62,0,0,0-2.429-.211,34.848,34.848,0,0,0-7.55,1.041,25.175,25.175,0,0,0-5.717,2.071,17.023,17.023,0,0,0-4.594,3.337,11.75,11.75,0,0,0-2.719,4.472,10.035,10.035,0,0,0-.141,5.482,10.88,10.88,0,0,0,1.755,4.048,11.315,11.315,0,0,0,2.911,2.745,18.149,18.149,0,0,0,3.91,1.9c1.461.515,3.049,1.005,4.719,1.457,1.543.314,3.011.626,4.362.929a23.483,23.483,0,0,1,3.705,1.125,8.7,8.7,0,0,1,2.765,1.731,5.543,5.543,0,0,1,1.531,2.81,5.716,5.716,0,0,1-1.359,5.461c-1.341,1.449-3.632,2.556-6.809,3.289a17.821,17.821,0,0,1-3.057.405c-.412.021-.832.032-1.247.032-.71,0-1.436-.031-2.158-.094a19.917,19.917,0,0,1-3.358-.578,13.533,13.533,0,0,1-1.961-.676Zm105.039-1.66-8.507-.895,4.087-38.887-12.973-1.364.775-7.37.5.052,33.986,3.572-.774,7.37-13.005-1.366Zm-7.408-1.785,6.518.686,4.087-38.887.5.052,12.508,1.314.565-5.381-32.495-3.415-.566,5.381,12.973,1.364Zm-27.369-.219a28.454,28.454,0,0,1-2.861-.177c-1.117-.117-2.279-.29-3.454-.514a32.028,32.028,0,0,1-3.353-.823,10.938,10.938,0,0,1-2.629-1.135l-.232-.147v-9.18l.836.76a11.578,11.578,0,0,0,2.388,1.641,18.871,18.871,0,0,0,2.983,1.252,23.672,23.672,0,0,0,3.17.792,16.8,16.8,0,0,0,2.9.279c3.057,0,5.349-.505,6.812-1.5a4.709,4.709,0,0,0,2.114-4.188,4.554,4.554,0,0,0-.7-2.536,7.683,7.683,0,0,0-2.043-2.038,22.4,22.4,0,0,0-3.213-1.847c-1.245-.6-2.6-1.23-4.038-1.884l-.028-.014c-1.547-.827-3.011-1.677-4.349-2.526a19.147,19.147,0,0,1-3.568-2.885,12.291,12.291,0,0,1-2.415-3.622,11.865,11.865,0,0,1-.882-4.738,11.017,11.017,0,0,1,1.517-5.831,12.759,12.759,0,0,1,3.963-4.063,18.065,18.065,0,0,1,5.532-2.352,26.2,26.2,0,0,1,6.278-.76c4.816,0,8.394.562,10.632,1.67l.278.138v8.746l-.792-.572a16.221,16.221,0,0,0-9.673-2.7,17.447,17.447,0,0,0-3.255.309,9.52,9.52,0,0,0-2.835.993,6,6,0,0,0-1.979,1.728,4.123,4.123,0,0,0-.731,2.469,4.756,4.756,0,0,0,.569,2.386,6.333,6.333,0,0,0,1.723,1.88,18.5,18.5,0,0,0,2.9,1.744c1.155.573,2.52,1.2,4.058,1.879l.03.014c1.589.826,3.114,1.709,4.532,2.626a21.827,21.827,0,0,1,3.8,3.086,13.838,13.838,0,0,1,2.634,3.8,11.311,11.311,0,0,1,.983,4.8,11.264,11.264,0,0,1-5.39,10.135,17.323,17.323,0,0,1-5.6,2.224A31.329,31.329,0,0,1,984.957,1302.262Zm-11.529-3.354a10.721,10.721,0,0,0,2.154.884,30.969,30.969,0,0,0,3.248.8c1.147.219,2.281.388,3.37.5a27.43,27.43,0,0,0,2.757.172,30.33,30.33,0,0,0,6.4-.656,16.328,16.328,0,0,0,5.282-2.092,10.813,10.813,0,0,0,3.6-3.7,10.923,10.923,0,0,0,1.328-5.587,10.322,10.322,0,0,0-.889-4.375,12.836,12.836,0,0,0-2.444-3.529,20.826,20.826,0,0,0-3.626-2.943c-1.387-.9-2.88-1.762-4.435-2.571-1.546-.678-2.92-1.315-4.085-1.892a19.483,19.483,0,0,1-3.062-1.841,7.32,7.32,0,0,1-1.99-2.183,5.738,5.738,0,0,1-.7-2.882,5.1,5.1,0,0,1,.92-3.054,6.99,6.99,0,0,1,2.3-2.017,10.518,10.518,0,0,1,3.133-1.1,18.449,18.449,0,0,1,3.442-.327,17.785,17.785,0,0,1,9.466,2.358v-6.207c-2.118-.953-5.449-1.435-9.91-1.435a25.2,25.2,0,0,0-6.038.73,17.071,17.071,0,0,0-5.227,2.219,11.767,11.767,0,0,0-3.655,3.746,10.035,10.035,0,0,0-1.37,5.309,10.879,10.879,0,0,0,.8,4.339,11.293,11.293,0,0,0,2.22,3.328,18.154,18.154,0,0,0,3.382,2.733c1.313.834,2.75,1.668,4.27,2.481,1.435.654,2.794,1.289,4.041,1.886a23.388,23.388,0,0,1,3.357,1.931,8.673,8.673,0,0,1,2.3,2.309,5.535,5.535,0,0,1,.859,3.082,5.715,5.715,0,0,1-2.552,5.015c-1.632,1.111-4.113,1.674-7.375,1.674a17.8,17.8,0,0,1-3.071-.294,24.64,24.64,0,0,1-3.3-.826,19.863,19.863,0,0,1-3.142-1.319,13.519,13.519,0,0,1-1.758-1.1Zm79.678,2.931h0a17.832,17.832,0,0,1-2.471-.179,12.81,12.81,0,0,1-9.581-6.21c-2.137-3.5-2.856-7.859-2.139-12.961a23.18,23.18,0,0,1,1.973-6.823,16.307,16.307,0,0,1,3.78-5.1,13.012,13.012,0,0,1,8.928-3.486,15.844,15.844,0,0,1,2.2.158,12.924,12.924,0,0,1,9.749,6.04,15.4,15.4,0,0,1,2.044,5.892,26.538,26.538,0,0,1-.1,7.427,24.729,24.729,0,0,1-1.959,7,15.14,15.14,0,0,1-3.664,5.01A12.843,12.843,0,0,1,1053.107,1301.839Zm.488-33.755a12.04,12.04,0,0,0-8.259,3.23c-2.916,2.622-4.743,6.429-5.431,11.315-.684,4.867-.01,9.005,2,12.3a11.851,11.851,0,0,0,8.867,5.741,16.835,16.835,0,0,0,2.332.169,11.87,11.87,0,0,0,8.1-2.982c2.8-2.469,4.578-6.3,5.294-11.395.737-5.241.129-9.5-1.808-12.657a11.968,11.968,0,0,0-9.036-5.573A14.845,14.845,0,0,0,1053.6,1268.083Zm39.682,24.593a10.132,10.132,0,0,1-2.787-.41l-6.521-1.87,4.352-15.178,6.583,1.887a9.144,9.144,0,0,1,5.483,3.618,7.007,7.007,0,0,1,.633,5.886,9.039,9.039,0,0,1-1.571,3.15,7.571,7.571,0,0,1-2.461,2.049,7.892,7.892,0,0,1-3.079.845C1093.7,1292.669,1093.488,1292.676,1093.277,1292.676Zm-8.072-2.965,5.56,1.595a9.14,9.14,0,0,0,2.511.371c.187,0,.375-.007.56-.02a6.9,6.9,0,0,0,2.692-.736,6.582,6.582,0,0,0,2.136-1.782,8.045,8.045,0,0,0,1.392-2.8,5.973,5.973,0,0,0-.517-5.076,8.2,8.2,0,0,0-4.912-3.191l-5.621-1.612Z" transform="translate(275.594 -1014.536)" fill="rgba(0,0,0,0)"/>
  </g>
</svg>
